G04 ================== begin FILE IDENTIFICATION RECORD ==================*
G04 Layout Name:  D:/work/projects/lcdc/epson/s1d13700/dev/hw/pcb/brd/s1d13700.brd*
G04 Film Name:    BOTTOM*
G04 File Format:  Gerber RS274X*
G04 File Origin:  Cadence Allegro 16.3-p003*
G04 Origin Date:  Wed Aug 15 20:45:21 2012*
G04 *
G04 Layer:  BOARD GEOMETRY/OUTLINE*
G04 Layer:  VIA CLASS/BOTTOM*
G04 Layer:  PIN/BOTTOM*
G04 Layer:  ETCH/BOTTOM*
G04 *
G04 Offset:    (0.000 0.000)*
G04 Mirror:    No*
G04 Mode:      Positive*
G04 Rotation:  0*
G04 FullContactRelief:  No*
G04 UndefLineWidth:     0.000*
G04 ================== end FILE IDENTIFICATION RECORD ====================*
%FSLAX55Y55*MOIN*%
%IR0*IPPOS*OFA0.00000B0.00000*MIA0B0*SFA1.00000B1.00000*%
%ADD10C,.15748*%
%ADD12C,.02*%
%ADD13C,.03*%
%ADD14C,.07*%
%ADD11C,.03937*%
%ADD16R,.03937X.037402*%
%ADD15R,.037402X.03937*%
%ADD17C,.008*%
%ADD18C,.012*%
%ADD19C,.04*%
%ADD20C,.025*%
%ADD21C,.187484*%
G75*
%LPD*%
G75*
G36*
G01X63713Y48600D02*
X91230Y21083D01*
G02X90947Y20400I-283J-283D01*
G01X57213D01*
X54516Y17704D01*
G02X53848Y18091I-283J283D01*
G03X48386Y21750I-3348J909D01*
G01X34361D01*
X28750Y16139D01*
Y6861D01*
X32959Y2651D01*
G02X32676Y1969I-283J-283D01*
G01X1969D01*
Y78616D01*
G02X2651Y78898I400J0D01*
G01X8050Y73500D01*
X15000D01*
G03X18269Y75748I0J3500D01*
G02X18925Y75888I374J-143D01*
G01X20318Y74495D01*
G02X20166Y73834I-283J-283D01*
G03X18150Y71000I984J-2834D01*
G01Y56107D01*
X33147Y41110D01*
X33161Y41060D01*
G03X37440Y45339I3339J940D01*
G01X37390Y45353D01*
X24150Y58593D01*
Y69697D01*
G02X24833Y69980I400J0D01*
G01X45713Y49100D01*
X45950D01*
X46450Y48600D01*
X51673D01*
G02X52064Y48118I0J-400D01*
G03X53100Y45178I2936J-617D01*
G01Y37213D01*
X55100Y35213D01*
Y30054D01*
G03X58900I1900J-2322D01*
G01Y36787D01*
X56900Y38787D01*
Y45178D01*
G03X57936Y48118I-1900J2322D01*
G02X58327Y48600I391J82D01*
G01X63713D01*
G37*
G36*
G01X16150Y147850D02*
G03X13675Y146825I0J-3500D01*
G01X9500Y142650D01*
Y110000D01*
X7050D01*
X2651Y105602D01*
G02X1969Y105884I-283J283D01*
G01Y159449D01*
X38646D01*
G02X38929Y158766I0J-400D01*
G01X33799Y153637D01*
X33708Y153643D01*
G03X31375Y148532I-208J-2993D01*
G02X31091Y147850I-283J-282D01*
G01X16150D01*
G37*
G36*
G01X10950Y80500D02*
X8500Y82950D01*
Y85347D01*
G02X9183Y85630I400J0D01*
G01X13630Y81183D01*
G02X13347Y80500I-283J-283D01*
G01X10950D01*
G37*
G36*
G01X46213Y104600D02*
X64721Y86092D01*
Y85592D01*
X65013Y85299D01*
X65007Y85208D01*
G03X65193Y83941I2993J-208D01*
G02X64818Y83400I-374J-141D01*
G01X52787D01*
X44416Y91772D01*
G02X44499Y92401I283J283D01*
G03X42792Y97993I-1499J2599D01*
G01X42701Y97987D01*
X39287Y101400D01*
X28213D01*
X21100Y94287D01*
Y87553D01*
G02X20417Y87270I-400J0D01*
G01X18965Y88722D01*
X19107Y88864D01*
X19107Y88865D01*
G03X16958Y94000I-2107J2135D01*
G03X14300Y96485I-2958J-500D01*
G03X12911Y99002I-3000J-15D01*
G02X12816Y99593I215J337D01*
G03X13320Y102526I-2316J1907D01*
G02X13624Y103056I376J137D01*
G03X16500Y106500I-624J3444D01*
G01Y139750D01*
X17600Y140850D01*
X32066D01*
G02X32428Y140279I0J-400D01*
G03X35142Y136000I2714J-1279D01*
G01X35454D01*
X37355Y134100D01*
X38447D01*
G02X38730Y133417I0J-400D01*
G01X33030Y127717D01*
X32890Y127830D01*
G03X28012Y125231I-1890J-2330D01*
G01X28020Y125138D01*
X27813Y124930D01*
X27500Y125243D01*
Y132500D01*
G03X21500I-3000J0D01*
G01Y122757D01*
X26257Y118000D01*
X27000D01*
G02X27353Y117412I0J-400D01*
G03X28396Y113464I2647J-1412D01*
G02Y112788I-214J-338D01*
G03X31859Y107898I1604J-2536D01*
G03X34042Y107000I2141J2102D01*
G03X39426Y105736I2958J500D01*
G02X40132Y105618I324J-235D01*
G03X45322Y104600I2868J882D01*
G01X46213D01*
G37*
G36*
G01X72662Y71600D02*
X111062Y33200D01*
G03X115436Y29140I2399J-1802D01*
G02X116100Y28839I263J-301D01*
G01Y28213D01*
X129084Y15229D01*
Y14468D01*
G03X126355Y11732I1900J-4625D01*
G02X125614I-370J151D01*
G03X119178Y14505I-4630J-1889D01*
G01X119056Y14458D01*
X113614Y19900D01*
X105287D01*
X99370Y25817D01*
G02X99653Y26500I283J283D01*
G01X105500D01*
G03Y33500I0J3500D01*
G01X99950D01*
X96475Y36975D01*
G03X90621Y35414I-2475J-2475D01*
G02X89952Y35235I-386J104D01*
G01X69343Y55844D01*
G02X69576Y56524I283J283D01*
G03X66878Y61400I-376J2977D01*
G01X57322D01*
G03X52064Y58883I-2322J-1900D01*
G02X51673Y58400I-391J-82D01*
G01X49287D01*
X36770Y70917D01*
G02X37053Y71600I283J283D01*
G01X72662D01*
G37*
G36*
G01X105278Y95465D02*
X98500Y102243D01*
Y105000D01*
X100000D01*
G03Y111000I0J3000D01*
G01X99887D01*
X97987Y112900D01*
X91813D01*
X85539Y106626D01*
Y100801D01*
G03X85044Y100287I1900J-2322D01*
G02X84442Y100245I-319J241D01*
G01X67287Y117400D01*
X58877D01*
G02X58479Y117847I0J400D01*
G03X55500Y121200I-2979J353D01*
G01X38899D01*
X36099Y124000D01*
X35653D01*
G02X35370Y124683I0J400D01*
G01X36320Y125633D01*
G02X37003Y125368I283J-283D01*
G03X42205Y123466I2997J132D01*
G02X42792Y123468I294J-271D01*
G03X46884Y127837I2193J2048D01*
G01Y130197D01*
X49287Y132600D01*
X64713D01*
X82213Y115100D01*
X124713D01*
X129513Y110299D01*
X129507Y110208D01*
G03X129532Y109559I2993J-208D01*
G02X129137Y109100I-396J-59D01*
G01X126913D01*
X125713Y107900D01*
X120520D01*
Y109469D01*
X113780D01*
Y103469D01*
X107480D01*
Y99219D01*
X106726Y98465D01*
Y96914D01*
X105278Y95465D01*
G37*
G36*
G01X36487Y150949D02*
X42637Y157100D01*
X54070D01*
G02X54353Y156417I0J-400D01*
G01X45786Y147850D01*
X35909D01*
G02X35625Y148532I0J400D01*
G03X36493Y150858I-2125J2118D01*
G01X36487Y150949D01*
G37*
G36*
G01X65076Y104100D02*
X141177Y27998D01*
G02X141024Y27337I-283J-283D01*
G03X139209Y25600I976J-2837D01*
G01X134870D01*
X128100Y32370D01*
Y34358D01*
G03X128122Y38622I-2100J2143D01*
G01X108086Y58657D01*
X105936D01*
X91122Y73472D01*
G03X86450Y72932I-2121J-2121D01*
G02X85828Y72860I-340J211D01*
G01X75287Y83400D01*
X71182D01*
G02X70807Y83941I0J400D01*
G03X68265Y87988I-2807J1059D01*
G01X68192Y87995D01*
X53584Y102604D01*
G02X53706Y103253I283J283D01*
G03X54822Y104100I-1206J2747D01*
G01X65076D01*
G37*
G36*
G01X51419Y143583D02*
X59947Y152112D01*
X62906D01*
Y147144D01*
X66467Y143583D01*
G02X66184Y142900I-283J-283D01*
G01X51702D01*
G02X51419Y143583I0J400D01*
G37*
G36*
G01X65017Y6887D02*
G03X56355Y11732I-4033J2956D01*
G02X55614I-370J151D01*
G03X55029Y12782I-4630J-1889D01*
G01X54991Y12835D01*
Y13100D01*
X55287D01*
X58787Y16600D01*
X89995D01*
X90001Y16406D01*
G03X90254Y15291I2999J94D01*
G02X89969Y14739I-366J-161D01*
G03X86355Y11732I1015J-4896D01*
G02X85614I-370J151D01*
G03X76951Y6887I-4630J-1889D01*
G02X76629Y6250I-323J-236D01*
G01X65340D01*
G02X65017Y6887I0J400D01*
G37*
G36*
G01X156919Y91530D02*
G02X156292Y91451I-344J204D01*
G01X154500Y93243D01*
Y120025D01*
X148500Y126025D01*
Y146350D01*
X151350D01*
G03Y152350I0J3000D01*
G01X112000D01*
G03Y146350I0J-3000D01*
G01X112749D01*
G02X112930Y145593I0J-400D01*
G03X111500Y140759I1570J-3093D01*
G01Y136500D01*
X96050D01*
X90550Y131000D01*
X88950D01*
X69906Y150044D01*
Y155612D01*
G03X69767Y156588I-3501J0D01*
G02X70151Y157100I384J112D01*
G01X160763D01*
X162263Y155600D01*
X162677D01*
X162736Y155531D01*
G03X163206Y155096I2264J1969D01*
G02X163249Y154492I-239J-321D01*
G01X160229Y151472D01*
G03X164472Y147228I2121J-2121D01*
G01X165323Y148080D01*
G02X166005Y147821I283J-283D01*
G03X169915Y145143I2995J179D01*
G02X170165Y145018I61J-190D01*
G03X171176Y143618I2835J982D01*
G02X170933Y142900I-243J-318D01*
G01X161713D01*
X153600Y134787D01*
Y131822D01*
G03X156415Y126643I1900J-2322D01*
G02X156665Y126518I61J-190D01*
G03X157885Y124971I2835J982D01*
G03X160500Y120500I2615J-1471D01*
G03X161546Y118224I3000J0D01*
G02X161285Y117520I-261J-303D01*
G01X161031D01*
Y104480D01*
X162600D01*
Y103287D01*
X157600Y98287D01*
Y92322D01*
G03X156919Y91530I1900J-2322D01*
G37*
G36*
G01X141243Y50500D02*
X127500Y64243D01*
Y70500D01*
X135476D01*
X138947Y67028D01*
G03X142067Y66321I2121J2121D01*
G02X142600Y65944I133J-377D01*
G01Y61787D01*
X141799Y60987D01*
X141708Y60993D01*
G03X144493Y58208I-208J-2993D01*
G01X144487Y58299D01*
X146400Y60213D01*
Y78787D01*
X139487Y85701D01*
X139493Y85792D01*
G03X136921Y88971I-2993J208D01*
G02X136694Y89650I56J396D01*
G01X138400Y91356D01*
Y93678D01*
G03X133501Y95911I-1900J2322D01*
G02X133089Y95499I-400J-12D01*
G03X130678Y94400I-89J-2999D01*
G01X126213D01*
X115299Y83487D01*
X115208Y83493D01*
G03X115132Y83497I-207J-2993D01*
G02X114867Y84180I18J400D01*
G01X132201Y101514D01*
X132292Y101507D01*
G03X132500Y101500I208J3012D01*
G01X136500D01*
G03X138860Y106353I0J3000D01*
G02X139174Y107000I315J247D01*
G01X140500D01*
G03X141912Y107353I0J3000D01*
G02X142500Y107000I188J-353D01*
G01Y94500D01*
G03X147884Y91550I3500J0D01*
G02X148500Y91213I215J-337D01*
G01Y90757D01*
X154878Y84378D01*
G03X159996Y86344I2122J2121D01*
G01X160000Y86421D01*
X160196Y86617D01*
X160363Y86450D01*
X161031D01*
Y84980D01*
X167969D01*
Y91280D01*
X173969D01*
Y98020D01*
X172400D01*
Y100478D01*
G03X168619Y105138I-1900J2322D01*
G02X167969Y105449I-251J312D01*
G01Y110780D01*
X173969D01*
Y117520D01*
X171011D01*
G02X170657Y118106I0J400D01*
G03X170968Y119941I-2657J1394D01*
G02X171363Y120400I396J59D01*
G01X176587D01*
X180787Y124600D01*
X207213D01*
X207600Y124213D01*
Y115213D01*
X220060Y102753D01*
X219973Y102617D01*
G03X223344Y98121I2527J-1617D01*
G01X223371Y98129D01*
X223600D01*
Y97787D01*
X222799Y96987D01*
X222708Y96993D01*
G03X220341Y91917I-208J-2993D01*
G03X219700Y90063I2359J-1854D01*
G01Y86126D01*
G03X225700I3000J0D01*
G01Y86439D01*
X229240Y89978D01*
X232419Y86799D01*
X232412Y86708D01*
G03X237783Y84670I2993J-208D01*
G02X238500Y84426I317J-244D01*
G01Y82743D01*
X231907Y76150D01*
X202650D01*
G03X199650Y73150I0J-3000D01*
G01Y69893D01*
X189757Y60000D01*
X152757D01*
X143257Y50500D01*
X141243D01*
G37*
G36*
G01X142500Y133416D02*
G02X141817Y133133I-400J0D01*
G01X138450Y136500D01*
X117500D01*
Y140759D01*
G03X116070Y145593I-3000J1741D01*
G02X116251Y146350I181J357D01*
G01X142500D01*
Y133416D01*
G37*
G36*
G01X141917Y72545D02*
X137961Y76500D01*
X124500D01*
G03X124476Y76500I0J-2808D01*
G01X124027D01*
G02X123886Y76842I0J200D01*
G01X132850Y85806D01*
G02X133529Y85579I283J-283D01*
G03X136708Y83007I2971J421D01*
G01X136799Y83013D01*
X142600Y77213D01*
Y72827D01*
G02X141917Y72545I-400J0D01*
G37*
G36*
G01X226358Y147385D02*
X215593Y158150D01*
X167933D01*
X167892Y158297D01*
G03X167671Y158866I-2892J-797D01*
G02X168027Y159449I356J182D01*
G01X246063D01*
Y1969D01*
X226824D01*
G02X226541Y2651I0J400D01*
G01X231250Y7361D01*
Y39386D01*
G03X225750I-2750J2114D01*
G01Y9639D01*
X222361Y6250D01*
X215340D01*
G02X215017Y6887I0J400D01*
G03X209178Y14505I-4033J2956D01*
G01X209056Y14458D01*
X206614Y16900D01*
X200787D01*
X198175Y19513D01*
G02X198308Y20166I283J283D01*
G03X200500Y23413I-1308J3247D01*
G01Y27550D01*
X210950Y38000D01*
X218500D01*
G03Y45000I0J3500D01*
G01X212153D01*
G02X211870Y45683I0J400D01*
G01X218900Y52713D01*
Y56178D01*
G03X215100I-1900J2322D01*
G01Y54287D01*
X207413Y46600D01*
X207387D01*
X196187Y35400D01*
X153787D01*
X148487Y40701D01*
X148493Y40792D01*
G03X142901Y42499I-2993J208D01*
G02X142272Y42416I-347J200D01*
G01X140870Y43817D01*
G02X141153Y44500I283J283D01*
G01X145743D01*
X155243Y54000D01*
X192243D01*
X205650Y67407D01*
Y70150D01*
X234393D01*
X244500Y80257D01*
Y129243D01*
X234000Y139743D01*
G02X234362Y140418I283J283D01*
G03X227032Y147748I1859J9188D01*
G02X226358Y147385I-392J-79D01*
G37*
G36*
G01X163673Y98020D02*
G02X163390Y98703I0J400D01*
G01X166400Y101713D01*
Y104480D01*
X167350D01*
G02X167720Y103929I0J-400D01*
G03X168600Y100478I2780J-1129D01*
G01Y98020D01*
X163673D01*
G37*
G36*
G01X169299Y150987D02*
X169208Y150993D01*
G03X169179Y150995I-208J-2993D01*
G02X168920Y151677I24J399D01*
G01X169393Y152150D01*
X208600D01*
Y150322D01*
G03X207807Y146677I1900J-2322D01*
G02X207448Y146100I-359J-176D01*
G01X181087D01*
X175908Y151279D01*
X169592D01*
X169299Y150987D01*
G37*
G36*
G01X213107Y152150D02*
X235049Y130208D01*
G02X234970Y129581I-283J-283D01*
G03X234610Y129330I1530J-2581D01*
G01X234470Y129217D01*
X231600Y132087D01*
Y132113D01*
X217613Y146100D01*
X213551D01*
G02X213193Y146677I0J400D01*
G03X212400Y150322I-2693J1323D01*
G01Y152150D01*
X213107D01*
G37*
%LPC*%
G75*
G54D21*
X11811Y11811D03*
%LPD*%
G75*
G54D10*
X11811Y11811D03*
X236220Y149606D03*
G54D20*
G01X228500Y41500D02*
Y8500D01*
X223500Y3500D01*
X36000D01*
X31500Y8000D01*
Y15000D01*
X35500Y19000D01*
X50500D01*
G54D11*
X15000Y77000D03*
X8500Y70500D03*
X19000Y129500D03*
X16150Y144350D03*
X30500Y22500D03*
X36500Y42000D03*
X42500Y49500D03*
X39500Y103200D03*
X36500Y144350D03*
X50500Y19000D03*
X45500Y66500D03*
X66406Y155612D03*
X79500Y109850D03*
X94000Y34500D03*
X89500Y132500D03*
X105500Y30000D03*
X114500Y142500D03*
X112332Y154000D03*
X142000D03*
X146000Y94500D03*
X203850Y19500D03*
X197000Y23413D03*
X218500Y19500D03*
Y41500D03*
X228500D03*
G54D12*
G01X183500Y68000D02*
X181000Y70500D01*
Y75500D01*
X182500Y77000D01*
X11000Y82000D03*
X5500Y150500D03*
X13000Y156000D03*
X5500D03*
X25500Y6000D03*
Y17000D03*
X51500Y156000D03*
X45000D03*
X62000Y143500D03*
X81500Y61000D03*
X182500Y77000D03*
X183500Y68000D03*
X197500Y151000D03*
X208000Y73150D03*
X216000Y147500D03*
X223500Y153500D03*
X225500Y157000D03*
X220500D03*
X236500Y19000D03*
Y27500D03*
Y36500D03*
X244000Y140000D03*
G54D13*
G01X36500Y42000D02*
X21150Y57350D01*
Y71000D01*
G01X55500Y118200D02*
X37657D01*
X34857Y121000D01*
X27500D01*
X24500Y124000D01*
Y132500D01*
G01X46953Y94953D02*
X51403D01*
X51450Y95000D01*
X54500D01*
G01X50500Y122621D02*
X57379D01*
X59500Y120500D01*
G01X59623Y102000D02*
X70623Y91000D01*
X77000D01*
X95500Y72500D01*
X95544D01*
X108772Y59272D01*
G01X63500Y120500D02*
Y129800D01*
X62300Y131000D01*
X61824D01*
X61552Y131272D01*
G01X94750Y41750D02*
X100000Y36500D01*
X104500D01*
G01X99500Y114000D02*
X83650D01*
X79500Y109850D01*
G01X109000Y53500D02*
X106843Y55657D01*
X104693D01*
X89000Y71350D01*
G01X104500Y92000D02*
Y81500D01*
X110343Y75657D01*
X114500D01*
G01X96000Y108000D02*
X95500Y107500D01*
Y101000D01*
X104500Y92000D01*
G01Y106000D02*
Y98500D01*
G01Y106000D02*
Y109000D01*
X99500Y114000D01*
G01X99489Y146507D02*
X104495Y141500D01*
X108350D01*
G01X126000Y36500D02*
X109000Y53500D01*
G01X138000Y27000D02*
X135843Y29157D01*
Y32201D01*
X108772Y59272D01*
G01X114500Y142500D02*
Y133000D01*
G01X145000Y149350D02*
X112000D01*
G01X202650Y73150D02*
Y68650D01*
X191000Y57000D01*
X155000D01*
X154000D01*
X144500Y47500D01*
X140000D01*
X124500Y63000D01*
Y73500D01*
G01D02*
X136718D01*
X141068Y69150D01*
G01X151500Y61000D02*
X144500Y54000D01*
X139500D01*
X137000Y56500D01*
Y62500D01*
X137350Y62850D01*
X141068D01*
G01X151500Y61000D02*
Y80500D01*
X142500Y89500D01*
X139000D01*
G01X169800Y62850D02*
X153350D01*
X151500Y61000D01*
G01X157000Y86500D02*
X151500Y92000D01*
Y99000D01*
G01D02*
Y118783D01*
X145500Y124783D01*
Y148850D01*
X145000Y149350D01*
G01X151350D02*
X145000D01*
G01X194906Y50000D02*
X169500D01*
X160850Y41350D01*
G01X189000Y155150D02*
X168150D01*
X162350Y149350D01*
G01X183000Y62850D02*
X169800D01*
G01X175500Y86500D02*
Y90000D01*
G01X177500Y94500D02*
Y92000D01*
X175500Y90000D01*
G01X177500Y107032D02*
Y94500D01*
G01Y111500D02*
Y107032D01*
G01Y111500D02*
Y119800D01*
G01X194906Y50000D02*
Y42406D01*
X189000Y36500D01*
X183016D01*
G01X183000Y62850D02*
X190350D01*
X195500Y68000D01*
Y79000D01*
G01X189000Y155150D02*
X210500D01*
G01X203906Y59000D02*
X194906Y50000D01*
G01X203906Y59000D02*
X211406Y66500D01*
X235500D01*
G01X208000Y73150D02*
X202650D01*
G01X195500Y79000D02*
X202000Y85500D01*
Y94000D01*
G01X235500Y82000D02*
X232500Y79000D01*
X195500D01*
G01X202000Y98000D02*
Y94000D01*
G01X206500Y115000D02*
Y108000D01*
X202000Y103500D01*
Y98000D01*
G01D02*
X202063Y97937D01*
X218500D01*
G01X206489Y123511D02*
Y118061D01*
X206500Y118050D01*
Y115000D01*
G01X223000Y52661D02*
Y36000D01*
X218500Y31500D01*
Y19500D01*
G01X241500Y118000D02*
Y81500D01*
X233150Y73150D01*
X208000D01*
G01X210500Y155150D02*
X214350D01*
X241500Y128000D01*
Y118000D01*
G01X223000Y58500D02*
Y52661D01*
G01X235500Y66500D02*
X243000D01*
G01X236500Y118000D02*
X241500D01*
X17000Y91000D03*
X14000Y93500D03*
X11300Y96470D03*
X10500Y101500D03*
X13000Y106500D03*
X21150Y71000D03*
X26000Y87559D03*
X29000Y94000D03*
X30000Y110253D03*
Y116000D03*
X24500Y132500D03*
X37000Y96500D03*
X32591D03*
X43000Y95000D03*
X37000Y107500D03*
X34000Y110000D03*
X43000Y106500D03*
X31000Y125500D03*
X40000D03*
X39079Y139000D03*
X35142D03*
X33500Y150650D03*
X55000Y47500D03*
Y59500D03*
X46953Y94953D03*
X54500Y95000D03*
X52500Y106000D03*
X55500Y118200D03*
X50500Y122621D03*
X44984Y125516D03*
X57000Y27732D03*
X68000Y85000D03*
X59623Y102000D03*
X59500Y120500D03*
X61552Y131272D03*
X69200Y59500D03*
X71000Y66000D03*
X93000Y16500D03*
X89000Y71350D03*
X87439Y98480D03*
X87500Y127500D03*
X104500Y36500D03*
X104500Y92000D03*
Y98500D03*
X96000Y108000D03*
X100000D03*
X99500Y114000D03*
X97500Y126200D03*
X113461Y31398D03*
X109000Y53500D03*
X108772Y59272D03*
X114500Y75657D03*
X110841Y80659D03*
X115000Y80500D03*
X112000Y149350D03*
X108350Y141500D03*
X126000Y36500D03*
X124500Y73500D03*
X120500D03*
X142000Y24500D03*
X138000Y27000D03*
X141068Y62850D03*
X141500Y58000D03*
X141068Y69150D03*
X139000Y89500D03*
X136500Y86000D03*
Y96000D03*
X133000Y92500D03*
Y100000D03*
X132500Y104500D03*
X140500Y110000D03*
X136500D03*
X132500D03*
X138500Y116000D03*
X136500Y104500D03*
X135000Y128379D03*
Y123500D03*
X137784Y132216D03*
X145500Y41000D03*
X151500Y99000D03*
X146000Y116000D03*
X155500Y129500D03*
X151350Y149350D03*
X160850Y41350D03*
X159500Y90000D03*
X157000Y86500D03*
X157500Y103500D03*
X168000Y119500D03*
X159500Y127500D03*
X160500Y123500D03*
X164000Y128500D03*
X163500Y120500D03*
X162500Y132500D03*
X158300D03*
X162350Y149350D03*
X165000Y157500D03*
X169800Y62850D03*
X175500Y86500D03*
X170500Y102800D03*
X177500Y94500D03*
Y107032D03*
Y111500D03*
Y119800D03*
X168500Y128500D03*
X174209Y129791D03*
X168500Y132500D03*
X173000Y146000D03*
X169000Y148000D03*
X183016Y36500D03*
X189000Y155150D03*
X203906Y59000D03*
X202650Y73150D03*
X202000Y94000D03*
X217000Y58500D03*
X218500Y97937D03*
X206500Y115000D03*
X206489Y123511D03*
X210500Y148000D03*
X223000Y52661D03*
Y58500D03*
X222700Y86126D03*
Y90063D03*
X222500Y94000D03*
Y101000D03*
X223400Y124500D03*
X243000Y66500D03*
X235500D03*
Y82000D03*
X235405Y86500D03*
X235500Y90500D03*
Y94500D03*
X235405Y103000D03*
X236500Y113685D03*
Y118000D03*
Y122500D03*
Y127000D03*
G54D14*
X40984Y9842D03*
X50984D03*
X60984D03*
X70984D03*
X80984D03*
X90984D03*
X100984D03*
X110984D03*
X120984D03*
X130984D03*
X140984D03*
X150984D03*
X160984D03*
X170984D03*
X180984D03*
X190984D03*
X200984D03*
X210984D03*
G54D15*
X117150Y100000D03*
X110850D03*
Y106000D03*
X117150D03*
G54D16*
X164500Y88350D03*
Y94650D03*
Y114150D03*
Y107850D03*
X170500Y88350D03*
Y94650D03*
Y107850D03*
Y114150D03*
G54D17*
G01X3937Y0D02*
X244094D01*
G03X248032Y3937I0J3937D01*
G01Y157480D01*
G03X244094Y161417I-3937J0D01*
G01X3937D01*
G03X0Y157480I0J-3937D01*
G01Y3937D01*
G03X3937Y0I3937J0D01*
G01X110984Y9842D02*
X105827Y15000D01*
X105000D01*
X65500Y54500D01*
X48000D01*
X14000Y88500D01*
Y93500D01*
G01X100984Y9842D02*
Y16516D01*
X65000Y52500D01*
X47737D01*
X47237Y53000D01*
X47000D01*
X11300Y88700D01*
Y96470D01*
G01X90984Y9842D02*
X96000Y14858D01*
Y19000D01*
X64500Y50500D01*
X47237D01*
X46737Y51000D01*
X46500D01*
X8500Y89000D01*
Y99500D01*
X10500Y101500D01*
G01X120984Y9842D02*
X112827Y18000D01*
X104500D01*
X100400Y22100D01*
X66000Y56500D01*
X48500D01*
X17000Y88000D01*
Y91000D01*
G01X130984Y9842D02*
Y16016D01*
X118000Y29000D01*
Y31212D01*
X73712Y75500D01*
X50500D01*
X38441Y87559D01*
X26000D01*
G01X43000Y95000D02*
X38500Y99500D01*
X29000D01*
X23000Y93500D01*
Y84500D01*
X34000Y73500D01*
X73449D01*
X113461Y33488D01*
Y31398D01*
G01X140984Y9842D02*
Y15400D01*
X138884Y17500D01*
X132000D01*
X125658Y23842D01*
X120000Y29500D01*
Y31474D01*
X73974Y77500D01*
X51000D01*
X37500Y91000D01*
X32000D01*
X29000Y94000D01*
G01X93000Y16500D02*
X91000Y18500D01*
X58000D01*
X54500Y15000D01*
X46142D01*
X40984Y9842D01*
G01X150984D02*
Y13793D01*
X145377Y19400D01*
X132600D01*
X121900Y30100D01*
Y31837D01*
X74237Y79500D01*
X51500D01*
X38000Y93000D01*
X36091D01*
X32591Y96500D01*
G01X37000D02*
X52000Y81500D01*
X74500D01*
X123500Y32500D01*
Y31000D01*
X133500Y21000D01*
X149827D01*
X160984Y9842D01*
G01X30000Y110253D02*
X33247Y113500D01*
X66000D01*
X123306Y56194D01*
X150000Y29500D01*
X181327D01*
X200984Y9842D01*
G01X37000Y107500D02*
X39000Y109500D01*
X65000D01*
X149000Y25500D01*
X165327D01*
X180984Y9842D01*
G01X34000Y110000D02*
X35500Y111500D01*
X65500D01*
X149500Y27500D01*
X173327D01*
X190984Y9842D01*
G01X30000Y116000D02*
X31950D01*
X32450Y115500D01*
X66500D01*
X150500Y31500D01*
X183000D01*
X195000Y19500D01*
X195500D01*
X200000Y15000D01*
X205827D01*
X210984Y9842D01*
G01X140500Y110000D02*
X130300Y120200D01*
X84563D01*
X66963Y137800D01*
X45800D01*
X33500Y125500D01*
X31000D01*
G01X136500Y110000D02*
X127900Y118600D01*
X83900D01*
X66300Y136200D01*
X47200D01*
X40000Y129000D01*
Y125500D01*
G01X135000Y123500D02*
X86500D01*
X69000Y141000D01*
X41079D01*
X39079Y139000D01*
G01X138500Y116000D02*
X132700Y121800D01*
X85700D01*
X68100Y139400D01*
X44400D01*
X41000Y136000D01*
X38142D01*
X35142Y139000D01*
G01X33500Y150650D02*
X41850Y159000D01*
X161550D01*
X163050Y157500D01*
X165000D01*
G01X43000Y106500D02*
X47000D01*
X66621Y86879D01*
Y86379D01*
X68000Y85000D01*
G01X52500Y106000D02*
X65863D01*
X148363Y23500D01*
X157327D01*
X170984Y9842D01*
G01X44984Y125516D02*
Y130984D01*
X48500Y134500D01*
X65500D01*
X83000Y117000D01*
X125500D01*
X132500Y110000D01*
G01X55000Y47500D02*
Y38000D01*
X57000Y36000D01*
Y27732D01*
G01X55000Y59500D02*
X69200D01*
G01X78752Y58248D02*
X81500Y60997D01*
Y61000D01*
G01X87439Y98480D02*
Y105839D01*
X92600Y111000D01*
X97200D01*
X98621Y109579D01*
Y109379D01*
X100000Y108000D01*
G01X110850Y100000D02*
Y99902D01*
X108626Y97678D01*
Y96126D01*
X104500Y92000D01*
G01X135000Y128379D02*
X99679D01*
X97500Y126200D01*
G01X132500Y104500D02*
X110841Y82841D01*
Y80659D01*
G01X115000Y80500D02*
X127000Y92500D01*
X133000D01*
G01X110850Y106000D02*
X104500D01*
G01X109000Y146000D02*
X119000D01*
G01X136500Y96000D02*
Y92143D01*
X120500Y76143D01*
Y73500D01*
G01X117150Y100000D02*
Y106000D01*
G01X136500Y104500D02*
X133800Y107200D01*
X127700D01*
X126500Y106000D01*
X117150D01*
G01X119000Y146000D02*
X119500Y145500D01*
G01X141500Y58000D02*
X144500Y61000D01*
Y78000D01*
X136500Y86000D01*
G01X139000Y89500D02*
X138500Y89000D01*
G01D02*
X135681D01*
X133500Y86819D01*
Y85000D01*
G01X145500Y41000D02*
X153000Y33500D01*
X196974D01*
X208174Y44700D01*
X208200D01*
X217000Y53500D01*
Y58500D01*
G01X164500Y88350D02*
X161150D01*
X159500Y90000D01*
G01D02*
Y97500D01*
X164500Y102500D01*
Y107850D01*
G01Y94650D02*
X170500D01*
G01X168000Y114150D02*
X164500D01*
G01X168500Y105500D02*
X167000Y104000D01*
G01X159500Y127500D02*
X161000D01*
X163000Y125500D01*
X174237D01*
X178437Y129700D01*
X209326D01*
X212700Y126326D01*
Y117800D01*
X227100Y103400D01*
Y94463D01*
X222700Y90063D01*
G01X222500Y94000D02*
X225500Y97000D01*
Y102500D01*
X211100Y116900D01*
Y125663D01*
X208663Y128100D01*
X179337D01*
X175137Y123900D01*
X162850D01*
X162450Y123500D01*
X160500D01*
G01X163500Y120500D02*
X165300Y122300D01*
X175800D01*
X180000Y126500D01*
X208000D01*
X209500Y125000D01*
Y116000D01*
X222500Y103000D01*
Y101000D01*
G01X162500Y132500D02*
X163879Y133879D01*
Y134779D01*
X166800Y137700D01*
X213800D01*
X220700Y130800D01*
Y122063D01*
X238500Y104263D01*
Y97500D01*
X235500Y94500D01*
G01X164000Y128500D02*
X165700Y130200D01*
Y133518D01*
X168282Y136100D01*
X212900D01*
X219100Y129900D01*
Y121400D01*
X235405Y105094D01*
Y103000D01*
G01X155500Y129500D02*
Y134000D01*
X162500Y141000D01*
X215500D01*
X226500Y130000D01*
Y123685D01*
X236500Y113685D01*
G01X158300Y132500D02*
X165100Y139300D01*
X214700D01*
X223400Y130600D01*
Y124500D01*
G01X175500Y90000D02*
X175000Y89500D01*
X173500D01*
X172350Y88350D01*
X170500D01*
G01Y102800D02*
Y94650D01*
G01Y114150D02*
X168000D01*
G01Y119500D02*
Y114150D01*
G01X177500Y107032D02*
X176968Y106500D01*
X174500D01*
X173150Y107850D01*
X170500D01*
G01X174209Y129791D02*
X175719Y131300D01*
X210200D01*
X214300Y127200D01*
Y118700D01*
X228700Y104300D01*
Y92126D01*
X222700Y86126D01*
G01X168500Y128500D02*
X172900Y132900D01*
X211100D01*
X215900Y128100D01*
Y119600D01*
X230300Y105200D01*
Y91606D01*
X235405Y86500D01*
G01X168500Y132500D02*
X170500Y134500D01*
X212000D01*
X217500Y129000D01*
Y120500D01*
X232000Y106000D01*
Y94000D01*
X235500Y90500D01*
G01X173000Y146000D02*
X176400Y142600D01*
X216163D01*
X228100Y130663D01*
Y124400D01*
X230000Y122500D01*
X236500D01*
G01X169000Y148000D02*
X170379Y149379D01*
X175121D01*
X180300Y144200D01*
X216826D01*
X229700Y131326D01*
Y131300D01*
X234000Y127000D01*
X236500D01*
G01X183500Y68000D02*
Y63350D01*
X183000Y62850D01*
G01X210500Y148000D02*
Y155150D01*
G54D18*
G01X126000Y36500D02*
Y31500D01*
X134000Y23500D01*
X141000D01*
X142000Y24500D01*
G54D19*
G01X15000Y77000D02*
X9500D01*
X5000Y81500D01*
Y103000D01*
X8500Y106500D01*
X13000D01*
G01X8500Y70500D02*
Y34000D01*
X20000Y22500D01*
X30500D01*
G01X16150Y144350D02*
X13000Y141200D01*
Y106500D01*
G01X39500Y103200D02*
X25300D01*
X19000Y109500D01*
Y129500D01*
G01X36500Y144350D02*
X16150D01*
G01X30500Y22500D02*
X42500Y34500D01*
Y49500D01*
G01X66406Y155612D02*
X58498D01*
X47236Y144350D01*
X36500D01*
G01X71000Y66000D02*
X70500Y66500D01*
X45500D01*
G01X59500Y120500D02*
X63500D01*
G01D02*
X68850D01*
X79500Y109850D01*
G01X66406Y155612D02*
Y148594D01*
X87500Y127500D01*
G01X78752Y58248D02*
X94750Y42250D01*
Y41750D01*
G01X71000Y66000D02*
X78752Y58248D01*
G01X105500Y30000D02*
X98500D01*
X94000Y34500D01*
G01X114500Y133000D02*
X97500D01*
X92000Y127500D01*
X87500D01*
G01X99489Y146507D02*
X89500Y136518D01*
Y132500D01*
G01X112332Y154000D02*
X106982D01*
X99489Y146507D01*
G01X137784Y132216D02*
X137000Y133000D01*
X114500D01*
G01X142000Y154000D02*
X112332D01*
G01X137784Y132216D02*
X140294Y129706D01*
Y121837D01*
X140300Y121832D01*
Y121700D01*
X146000Y116000D01*
G01X157500Y103500D02*
Y120000D01*
X150500Y127000D01*
Y140000D01*
X156500Y146000D01*
Y146500D01*
Y152000D01*
X154500Y154000D01*
X142000D01*
G01X146000Y94500D02*
Y116000D01*
G01X203850Y19500D02*
X218500D01*
G01X197000Y23413D02*
Y29000D01*
X209500Y41500D01*
X218500D01*
M02*
