G04 ================== begin FILE IDENTIFICATION RECORD ==================*
G04 Layout Name:  D:/work/projects/lcdc/epson/s1d13700/dev/hw/pcb/brd/s1d13700.brd*
G04 Film Name:    PASTEMASK_BOTTOM*
G04 File Format:  Gerber RS274X*
G04 File Origin:  Cadence Allegro 16.3-p003*
G04 Origin Date:  Wed Aug 15 20:45:21 2012*
G04 *
G04 Layer:  BOARD GEOMETRY/OUTLINE*
G04 Layer:  VIA CLASS/PASTEMASK_BOTTOM*
G04 Layer:  PIN/PASTEMASK_BOTTOM*
G04 Layer:  PACKAGE GEOMETRY/PASTEMASK_BOTTOM*
G04 *
G04 Offset:    (0.000 0.000)*
G04 Mirror:    No*
G04 Mode:      Positive*
G04 Rotation:  0*
G04 FullContactRelief:  No*
G04 UndefLineWidth:     0.000*
G04 ================== end FILE IDENTIFICATION RECORD ====================*
%FSLAX55Y55*MOIN*%
%IR0*IPPOS*OFA0.00000B0.00000*MIA0B0*SFA1.00000B1.00000*%
%ADD10C,.15748*%
%ADD11C,.07*%
%ADD13R,.03937X.037402*%
%ADD12R,.037402X.03937*%
%ADD14C,.008*%
G75*
%LPD*%
G75*
G54D10*
X11811Y11811D03*
X236220Y149606D03*
G54D11*
X40984Y9842D03*
X50984D03*
X60984D03*
X70984D03*
X80984D03*
X90984D03*
X100984D03*
X110984D03*
X120984D03*
X130984D03*
X140984D03*
X150984D03*
X160984D03*
X170984D03*
X180984D03*
X190984D03*
X200984D03*
X210984D03*
G54D12*
X117150Y100000D03*
X110850D03*
Y106000D03*
X117150D03*
G54D13*
X164500Y88350D03*
Y94650D03*
Y114150D03*
Y107850D03*
X170500Y88350D03*
Y94650D03*
Y107850D03*
Y114150D03*
G54D14*
G01X3937Y0D02*
X244094D01*
G03X248032Y3937I0J3937D01*
G01Y157480D01*
G03X244094Y161417I-3937J0D01*
G01X3937D01*
G03X0Y157480I0J-3937D01*
G01Y3937D01*
G03X3937Y0I3937J0D01*
M02*
