G04 ================== begin FILE IDENTIFICATION RECORD ==================*
G04 Layout Name:  D:/work/projects/lcdc/epson/s1d13700/dev/hw/pcb/brd/s1d13700.brd*
G04 Film Name:    TOP*
G04 File Format:  Gerber RS274X*
G04 File Origin:  Cadence Allegro 16.3-p003*
G04 Origin Date:  Wed Aug 15 20:45:21 2012*
G04 *
G04 Layer:  ETCH/TOP*
G04 Layer:  BOARD GEOMETRY/OUTLINE*
G04 Layer:  VIA CLASS/TOP*
G04 Layer:  PIN/TOP*
G04 *
G04 Offset:    (0.000 0.000)*
G04 Mirror:    No*
G04 Mode:      Positive*
G04 Rotation:  0*
G04 FullContactRelief:  No*
G04 UndefLineWidth:     0.000*
G04 ================== end FILE IDENTIFICATION RECORD ====================*
%FSLAX55Y55*MOIN*%
%IR0*IPPOS*OFA0.00000B0.00000*MIA0B0*SFA1.00000B1.00000*%
%ADD35R,.066929X.066929*%
%ADD10C,.15748*%
%ADD19R,.128X.084598*%
%ADD16C,.02*%
%ADD34R,.059X.012*%
%ADD17C,.03*%
%ADD36R,.08X.076*%
%ADD22C,.07*%
%ADD14C,.035*%
%ADD26R,.02165X.043311*%
%ADD25R,.043311X.02165*%
%ADD32R,.02165X.043311*%
%ADD31R,.079X.039*%
%ADD30R,.0315X.03937*%
%ADD15C,.03937*%
%ADD28R,.064961X.011811*%
%ADD12R,.03937X.037402*%
%ADD29R,.011811X.064961*%
%ADD13R,.037402X.03937*%
%ADD21R,.062992X.011811*%
%ADD20R,.011811X.062992*%
%ADD11R,.07087X.04528*%
%ADD23R,.04528X.07087*%
%ADD33R,.062992X.023622*%
%ADD24R,.07087X.07874*%
%ADD18R,.037402X.084598*%
%ADD27R,.01378X.066929*%
%ADD37C,.008*%
%ADD38C,.01*%
%ADD39C,.012*%
%ADD40C,.022*%
%ADD41C,.04*%
%ADD42C,.015*%
%ADD43C,.025*%
%ADD49R,.074874X.049284*%
%ADD48R,.049284X.074874*%
%ADD50C,.187484*%
%ADD53R,.084004X.080004*%
%ADD45C,.039004*%
%ADD46R,.041406X.043374*%
%ADD44R,.043374X.041406*%
%ADD47R,.041406X.088602*%
%ADD51R,.025654X.047316*%
%ADD52R,.070934X.070932*%
G75*
%LPD*%
G75*
G36*
G01X1969Y1969D02*
Y159449D01*
X64562D01*
G02X64751Y158696I0J-400D01*
G03X62906Y155612I1655J-3084D01*
G01Y155044D01*
X62642D01*
Y144956D01*
X70170D01*
Y147150D01*
X73500D01*
G03X74419Y147273I0J3500D01*
G01X74445Y147280D01*
X77319D01*
Y146342D01*
X75669D01*
Y146420D01*
X71331D01*
Y142280D01*
X76019D01*
Y141177D01*
X79384D01*
X79395Y141176D01*
G03X79685Y141160I290J2575D01*
G01X82780D01*
Y134031D01*
X89520D01*
Y134900D01*
X89980D01*
Y134031D01*
X96650D01*
Y132689D01*
X98500Y130839D01*
Y129547D01*
G02X98029Y129153I-400J0D01*
G03X94537Y125730I-529J-2953D01*
G02X93859Y125384I-395J-63D01*
G01X89622Y129621D01*
G03X84554Y126930I-2121J-2121D01*
G02X83879Y126571I-393J-76D01*
G01X74950Y135500D01*
X69187D01*
X62587Y142100D01*
X52413D01*
X52151Y141839D01*
G02X51469Y142122I-283J283D01*
G01Y143881D01*
X51470Y143894D01*
G03Y144806I-3470J456D01*
G01X51469Y144819D01*
Y147720D01*
X48945D01*
X48919Y147727D01*
G03X48000Y147850I-919J-3377D01*
G01X36500D01*
G03X33748Y142187I0J-3500D01*
G02X33635Y141594I-315J-247D01*
G03X32142Y139010I1507J-2594D01*
G02X31459Y138728I-400J1D01*
G01X30400Y139787D01*
Y140980D01*
X31969D01*
Y147444D01*
G02X32502Y147821I400J0D01*
G03Y153479I998J2829D01*
G02X31969Y153857I-133J377D01*
G01Y154020D01*
X25031D01*
Y152720D01*
X20331D01*
Y148580D01*
X25031D01*
Y147720D01*
X23445D01*
X23419Y147727D01*
G03X22500Y147850I-919J-3377D01*
G01X16150D01*
G03Y140850I0J-3500D01*
G01X19500D01*
Y136307D01*
X21500Y134307D01*
Y132500D01*
G03X26679Y130437I3000J0D01*
G01X26738Y130500D01*
X27146D01*
Y127791D01*
X28174D01*
G02X28507Y127169I0J-400D01*
G03X33993Y125708I2493J-1669D01*
G01X33987Y125799D01*
X35073Y126886D01*
Y127791D01*
X37174D01*
G02X37507Y127169I0J-400D01*
G03X42205Y123466I2493J-1669D01*
G02X42792Y123468I294J-271D01*
G03X47732Y124310I2193J2048D01*
G02X48345Y124464I366J-161D01*
G01X54292D01*
G02X54575Y123781I0J-400D01*
G01X50900Y120106D01*
Y120087D01*
X50600Y119787D01*
Y108322D01*
G03X54400I1900J-2322D01*
G01Y114873D01*
G02X54882Y115264I400J0D01*
G03X55582Y115201I617J2936D01*
G01X55668Y115203D01*
X55982Y114890D01*
X61791D01*
Y114799D01*
X63091D01*
Y109138D01*
X61791D01*
Y104956D01*
X63091D01*
Y94446D01*
X68030D01*
G02X68313Y93763I0J-400D01*
G01X68050Y93500D01*
X64000D01*
G03X63061Y93372I0J-3501D01*
G01X62948Y93340D01*
X56288Y100000D01*
X52172D01*
X48890Y96718D01*
Y92209D01*
X45417D01*
G02X45133Y92890I0J400D01*
G03X40655Y96872I-2133J2110D01*
G02X39950Y97048I-313J250D01*
G03X37000Y99500I-2950J-548D01*
G01X32591D01*
G03X29657Y97125I0J-3000D01*
G02X29432Y96969I-196J42D01*
G03X26890Y96133I-432J-2969D01*
G02X26209Y96417I-281J284D01*
G01Y103179D01*
X35366D01*
X36701Y104513D01*
X36792Y104507D01*
G03X39426Y105736I208J2993D01*
G02X40132Y105618I324J-235D01*
G03X42792Y109493I2868J882D01*
G01X42701Y109487D01*
X37334Y114853D01*
X33317D01*
G02X32927Y115341I0J400D01*
G03X29792Y118993I-2927J659D01*
G01X29701Y118987D01*
X27929Y120759D01*
X26209D01*
Y124886D01*
X24909D01*
Y125555D01*
X18209D01*
Y124886D01*
X16909D01*
Y124469D01*
X9780D01*
Y117531D01*
X16909D01*
Y116469D01*
X9780D01*
Y109531D01*
X10150D01*
Y107437D01*
X10140Y107408D01*
G03X10369Y105058I2860J-908D01*
G02X10075Y104470I-351J-192D01*
G03X8889Y98969I425J-2970D01*
G02X8984Y98377I-215J-337D01*
G03X11000Y93485I2316J-1907D01*
G03X12100Y91178I3000J15D01*
G02X11846Y90469I-253J-310D01*
G01X9780D01*
Y83531D01*
X16520D01*
Y84000D01*
X18150D01*
Y79766D01*
G02X17468Y79482I-400J0D01*
G03X11500Y77000I-2468J-2482D01*
G01Y68969D01*
X11480D01*
Y66445D01*
X11473Y66419D01*
G03X11350Y65500I3377J-919D01*
G01Y59120D01*
X19550Y50920D01*
X21600D01*
Y48690D01*
X26000D01*
Y44906D01*
X15044D01*
Y45170D01*
X13500D01*
Y49350D01*
G03X13470Y49806I-3499J0D01*
G01X13469Y49819D01*
Y52720D01*
X10945D01*
X10919Y52727D01*
G03X9081I-919J-3377D01*
G01X9055Y52720D01*
X6531D01*
Y49819D01*
X6530Y49806D01*
G03X6500Y49350I3469J-456D01*
G01Y45170D01*
X4956D01*
Y37642D01*
X15044D01*
Y37906D01*
X26000D01*
Y31580D01*
G03X26123Y30661I3500J0D01*
G01X26130Y30635D01*
Y25850D01*
X32870D01*
Y30635D01*
X32877Y30661D01*
G03X33000Y31580I-3377J919D01*
G01Y39633D01*
G02X33718Y39876I400J0D01*
G03X35000Y38838I2782J2124D01*
G01Y30192D01*
X35190Y30002D01*
Y25850D01*
X41930D01*
Y30635D01*
X41937Y30661D01*
G03X42003Y32207I-3377J919D01*
G01X42000Y32224D01*
Y37550D01*
X42856Y38406D01*
X43456D01*
Y38142D01*
X53831D01*
Y34280D01*
X58169D01*
Y38420D01*
X53544D01*
Y39150D01*
X58956D01*
Y38830D01*
X69044D01*
Y39808D01*
G02X69726Y40091I400J0D01*
G01X77808Y32010D01*
X80256D01*
Y23595D01*
X82179D01*
G02X82462Y22912I0J-400D01*
G01X77484Y17934D01*
Y13413D01*
G03X76951Y6887I3500J-3571D01*
G02X76629Y6250I-323J-236D01*
G01X73557D01*
G02X73306Y6962I0J400D01*
G03X68662I-2322J2881D01*
G02X68411Y6250I-251J-311D01*
G01X65340D01*
G02X65017Y6887I0J400D01*
G03X63400Y14220I-4033J2956D01*
G01Y15531D01*
X64520D01*
Y22295D01*
X69044D01*
Y33170D01*
X58956D01*
Y30755D01*
G02X58373Y30400I-400J0D01*
G03Y25065I-1373J-2668D01*
G02X58956Y24709I183J-356D01*
G01Y22469D01*
X50500D01*
G03Y15531I0J-3469D01*
G01X58900D01*
Y15240D01*
X58734Y15074D01*
Y14308D01*
G03X56355Y11732I2250J-4465D01*
G02X55614I-370J151D01*
G03X49418Y14591I-4630J-1889D01*
G01X44927Y19082D01*
X36068D01*
X34506Y17520D01*
X28031D01*
Y4480D01*
X31079D01*
X32908Y2651D01*
G02X32625Y1969I-283J-283D01*
G01X1969D01*
G37*
G36*
G01X20917Y59453D02*
X19022Y61349D01*
G02X19304Y62031I283J283D01*
G01X24520D01*
Y68969D01*
X24150D01*
Y74780D01*
X27683D01*
X27860Y74603D01*
G02X27577Y73920I-283J-283D01*
G01X24831D01*
Y69780D01*
X29531D01*
Y68480D01*
X35280D01*
Y62031D01*
X42020D01*
Y68480D01*
X42469D01*
Y72631D01*
X42648Y72811D01*
G02X43331Y72528I283J-283D01*
G01Y69780D01*
X47669D01*
Y73920D01*
X44107D01*
X44004Y74167D01*
X44069Y74231D01*
Y74780D01*
X53100D01*
Y73920D01*
X49331D01*
Y69780D01*
X52378D01*
G02X52661Y69097I0J-400D01*
G01X52533Y68969D01*
X48480D01*
Y62031D01*
X52351D01*
G02X52662Y61381I0J-400D01*
G03X53100Y57178I2338J-1881D01*
G01Y49822D01*
G03X52706Y49434I1900J-2322D01*
G02X52000Y49691I-306J258D01*
G01Y49850D01*
G03X51970Y50306I-3499J0D01*
G01X51969Y50319D01*
Y53220D01*
X49445D01*
X49419Y53227D01*
G03X47581I-919J-3377D01*
G01X47555Y53220D01*
X45031D01*
Y50319D01*
X45030Y50306D01*
G03X45000Y49850I3469J-456D01*
G01Y45670D01*
X43456D01*
Y45406D01*
X39544D01*
X39450Y45500D01*
X36500D01*
G03X33718Y44124I0J-3500D01*
G02X33000Y44367I-318J243D01*
G01Y48690D01*
X37400D01*
Y60150D01*
X21600D01*
Y59736D01*
G02X20917Y59453I-400J0D01*
G37*
G36*
G01X54949Y90909D02*
Y92209D01*
X52890D01*
Y95061D01*
X53828Y96000D01*
X54631D01*
X59040Y91592D01*
G02X58757Y90909I-283J-283D01*
G01X54949D01*
G37*
G36*
G01X58424Y118890D02*
X58382Y119034D01*
G03X57357Y120556I-2882J-834D01*
G02X57322Y121153I248J314D01*
G01X59032Y122864D01*
X61791D01*
Y122673D01*
X63091D01*
Y118981D01*
X61791D01*
Y118890D01*
X58424D01*
G37*
G36*
G01X59555Y129864D02*
Y133792D01*
G02X60237Y134075I400J0D01*
G01X63130Y131183D01*
G02X62847Y130500I-283J-283D01*
G01X61686D01*
X61050Y129864D01*
X59555D01*
G37*
G36*
G01X71848Y63839D02*
X70000Y65687D01*
Y77813D01*
X73400Y81213D01*
Y81531D01*
X76184D01*
X77000Y80716D01*
Y80275D01*
X77214Y80062D01*
G02X77072Y79720I-141J-141D01*
G01X73831D01*
Y75580D01*
X78169D01*
Y78141D01*
G02X78852Y78424I400J0D01*
G01X79417Y77858D01*
Y75145D01*
X79500D01*
Y74720D01*
X72531D01*
Y67980D01*
X73000D01*
Y65520D01*
X72531D01*
Y64122D01*
G02X71848Y63839I-400J0D01*
G37*
G36*
G01X79469Y58855D02*
Y65520D01*
X79000D01*
Y67980D01*
X79469D01*
Y68350D01*
X89000D01*
G03X89179Y68355I0J3025D01*
G02X89486Y67673I24J-399D01*
G01X85100Y63287D01*
Y58855D01*
X79469D01*
G37*
G36*
G01X69791Y96206D02*
Y104956D01*
X70715D01*
X71980Y103692D01*
Y101445D01*
X71973Y101419D01*
G03X71850Y100500I3377J-919D01*
G01Y97300D01*
X70473Y95924D01*
G02X69791Y96206I-283J283D01*
G37*
G36*
G01X78850Y94400D02*
Y100500D01*
G03X78727Y101419I-3500J0D01*
G01X78720Y101445D01*
Y103969D01*
X77350D01*
Y103979D01*
X74232Y107097D01*
G02X74515Y107780I283J283D01*
G01X77169D01*
Y111920D01*
X72831D01*
Y108980D01*
G02X72490Y108839I-200J0D01*
G01X72281Y109047D01*
X71091D01*
Y109138D01*
X69791D01*
Y114799D01*
X71054D01*
X71531Y114321D01*
Y112780D01*
X78469D01*
Y115878D01*
G02X79152Y116161I400J0D01*
G01X81100Y114213D01*
Y105950D01*
X85617Y101433D01*
G02X85582Y100836I-283J-283D01*
G03X84446Y98271I1857J-2356D01*
G01X84452Y98180D01*
X84160Y97888D01*
Y97847D01*
X84100Y97787D01*
Y95137D01*
G03X83363Y94400I1900J-2637D01*
G01X78850D01*
G37*
G36*
G01X71091Y118890D02*
Y118981D01*
X69791D01*
Y122673D01*
X71091D01*
Y123256D01*
G02X71774Y123539I400J0D01*
G01X75110Y120203D01*
G02X74827Y119520I-283J-283D01*
G01X71531D01*
Y118890D01*
X71091D01*
G37*
G36*
G01X139784Y143965D02*
Y145980D01*
X140969D01*
Y152720D01*
X128969D01*
Y153580D01*
X133669D01*
Y157720D01*
X128969D01*
Y159020D01*
X116031D01*
Y157337D01*
X114100Y155406D01*
Y152295D01*
G02X113500Y151948I-400J0D01*
G03X112000Y152350I-1500J-2598D01*
G01X109969D01*
Y152720D01*
X103031D01*
Y152350D01*
X99607D01*
X98467Y151210D01*
X96918Y152759D01*
G02X97201Y153442I283J283D01*
G01X102744D01*
Y158370D01*
X95256D01*
Y153840D01*
X90315D01*
G03X90025Y153824I0J-2591D01*
G01X90014Y153823D01*
X86649D01*
Y153494D01*
G02X85966Y153211I-400J0D01*
G01X85577Y153600D01*
X84368D01*
X84128Y153840D01*
X76969D01*
Y154020D01*
X74445D01*
X74419Y154027D01*
G03X73500Y154150I-919J-3377D01*
G01X70170D01*
Y155044D01*
X69906D01*
Y155612D01*
G03X68060Y158696I-3500J0D01*
G02X68250Y159449I189J352D01*
G01X161973D01*
G02X162329Y158866I0J-400D01*
G03X165010Y154500I2671J-1367D01*
G02X165411Y154100I1J-400D01*
G01Y151467D01*
G02X164698Y151218I-400J0D01*
G03X162350Y152350I-2348J-1868D01*
G01X161969D01*
Y152720D01*
X155031D01*
Y145980D01*
X156500D01*
Y143965D01*
X149626D01*
Y145980D01*
X150969D01*
Y146350D01*
X151350D01*
G03Y152350I0J3000D01*
G01X150969D01*
Y152720D01*
X144031D01*
Y145980D01*
X145572D01*
X145626Y145925D01*
Y143965D01*
X139784D01*
G37*
G36*
G01X87744Y23500D02*
Y30822D01*
G02X88426Y31105I400J0D01*
G01X88532Y31000D01*
X89085D01*
G02X89227Y30658I0J-200D01*
G01X89000Y30431D01*
Y23950D01*
X88550Y23500D01*
X87744D01*
G37*
G36*
G01X91219Y50520D02*
X90963Y50776D01*
X91400Y51213D01*
Y51523D01*
X94583D01*
Y58100D01*
X100169D01*
X100849Y58780D01*
X107469D01*
Y65520D01*
X105687D01*
X105403Y65804D01*
X105518Y65944D01*
G03X100899Y65520I-2518J2056D01*
G01X100531D01*
Y63837D01*
X98594Y61900D01*
X92713D01*
X91742Y60929D01*
G02X91400Y61070I-141J141D01*
G01Y61213D01*
X96183Y65996D01*
Y75145D01*
X99861D01*
X99905Y75006D01*
G03X105637Y74100I3095J994D01*
G01X109343D01*
Y59833D01*
X109572Y59604D01*
Y58941D01*
X109500Y58869D01*
Y58243D01*
X106879Y55622D01*
G03X106855Y55597I2123J-2120D01*
G02X106169Y55877I-286J280D01*
G01Y57920D01*
X101831D01*
Y53780D01*
X105602D01*
G02X106002Y53394I0J-400D01*
G03X106844Y51414I2998J106D01*
G01X106900Y51356D01*
Y50520D01*
X91219D01*
G37*
G36*
G01X103069Y33484D02*
Y38780D01*
X106669D01*
Y42920D01*
X103069D01*
Y43780D01*
X108295D01*
Y42874D01*
X112673D01*
Y44174D01*
X113413D01*
Y42874D01*
X118820D01*
Y41992D01*
X123208Y37605D01*
X123167Y37486D01*
G03X123020Y36847I2833J-987D01*
G02X122340Y36610I-397J46D01*
G01X119450Y39500D01*
X110050D01*
X103752Y33202D01*
G02X103069Y33484I-283J283D01*
G37*
G36*
G01X101272Y93416D02*
X95270Y99417D01*
G02X95553Y100100I283J283D01*
G01X106280D01*
Y96331D01*
X108788D01*
G02X109071Y95648I0J-400D01*
G01X108892Y95469D01*
X104980D01*
Y95000D01*
X104500D01*
G03X101901Y93499I0J-3000D01*
G02X101272Y93416I-347J200D01*
G37*
G36*
G01X102967Y107559D02*
G03X100000Y111000I-2967J441D01*
G01X99687D01*
X98700Y111987D01*
Y115591D01*
G02X99383Y115874I400J0D01*
G01X103257Y112000D01*
X106280D01*
Y107831D01*
X110420D01*
Y112000D01*
X111280D01*
Y107100D01*
X103363D01*
G02X102967Y107559I0J400D01*
G37*
G36*
G01X110420Y134969D02*
Y139669D01*
X106400D01*
Y142213D01*
X106787Y142600D01*
X110996D01*
X111001Y142405D01*
G03X111142Y141514I3499J95D01*
G01X111150Y141486D01*
Y137500D01*
G03X111273Y136581I3500J0D01*
G01X111280Y136555D01*
Y134969D01*
X110420D01*
G37*
G36*
G01X150355Y21900D02*
X142912Y14458D01*
X142791Y14505D01*
G03X136355Y11732I-1806J-4662D01*
G02X135614I-370J151D01*
G03X132884Y14468I-4630J-1889D01*
G01Y18760D01*
X132857Y18787D01*
Y20433D01*
X133146D01*
Y21733D01*
X134405D01*
Y28500D01*
X157795D01*
Y27380D01*
X142842D01*
X142816Y27387D01*
G03X144694Y23179I-815J-2887D01*
G01X157795D01*
Y21900D01*
X150355D01*
G37*
G36*
G01X134469Y59900D02*
Y65780D01*
X140969D01*
Y65951D01*
G02X141162Y66151I200J0D01*
G03X141978Y66291I-94J2999D01*
G02X142500Y65910I121J-381D01*
G01Y61347D01*
G02X142029Y60953I-400J0D01*
G03X140237Y60721I-529J-2953D01*
G02X139669Y61084I-168J363D01*
G01Y64920D01*
X135331D01*
Y60780D01*
X139071D01*
G02X139357Y60100I0J-400D01*
G03X139178Y59900I2143J-2100D01*
G01X134469D01*
G37*
G36*
G01X130677Y90600D02*
X130736Y90531D01*
G03X135999Y92589I2264J1969D01*
G02X136411Y93001I400J12D01*
G03X134178Y97900I89J2999D01*
G01X132287D01*
X131098Y99089D01*
X130032D01*
Y101801D01*
G02X130675Y102119I400J0D01*
G03X132500Y101500I1825J2381D01*
G01X136500D01*
G03X138822Y102600I0J3000D01*
G01X141287D01*
X145900Y107213D01*
Y111008D01*
X145100Y111808D01*
Y111906D01*
X143100Y113906D01*
Y114482D01*
X143410D01*
X143469Y114389D01*
G03X146000Y113000I2531J1611D01*
G01X147807D01*
X148307Y112500D01*
X177000D01*
G03X179898Y114725I0J3000D01*
G01X179938Y114874D01*
X180968D01*
Y101842D01*
G02X180286Y101559I-400J0D01*
G01X177145Y104700D01*
X172822D01*
G03X167521Y102447I-2322J-1900D01*
G02X167123Y102000I-397J-47D01*
G01X151500D01*
G03X148547Y98471I0J-3000D01*
G02X148153Y98000I-394J-71D01*
G01X146000D01*
G03Y91000I0J-3500D01*
G01X156153D01*
G02X156547Y90529I0J-400D01*
G03X156520Y89651I2953J-529D01*
G02X156364Y89432I-199J-23D01*
G03X155034Y84234I636J-2932D01*
G02X154772Y83532I-262J-302D01*
G01X139199D01*
G02X138881Y84175I0J400D01*
G03X133507Y85792I-2381J1825D01*
G01X133513Y85701D01*
X131946Y84134D01*
Y83532D01*
X130032D01*
Y90600D01*
X130677D01*
G37*
G36*
G01X151426Y36183D02*
X152500Y37257D01*
Y39279D01*
X156169D01*
Y43420D01*
X152500D01*
Y44279D01*
X157795D01*
Y42874D01*
X162174D01*
Y44174D01*
X162913D01*
Y42874D01*
X167458D01*
G02X167741Y42191I0J-400D01*
G01X161050Y35500D01*
X151709D01*
G02X151426Y36183I0J400D01*
G37*
G36*
G01X143100Y118305D02*
Y126247D01*
G02X143783Y126530I400J0D01*
G01X151471Y118842D01*
G02X151330Y118500I-141J-141D01*
G01X150793D01*
X150293Y119000D01*
X146000D01*
G03X143794Y118034I0J-3000D01*
G02X143100Y118305I-294J271D01*
G37*
G36*
G01X147012Y128676D02*
X145589Y130098D01*
Y134468D01*
X147694D01*
Y128959D01*
G02X147012Y128676I-400J0D01*
G37*
G36*
G01X209056Y14458D02*
X206614Y16900D01*
X200287D01*
X197787Y19400D01*
X190787D01*
X190584Y19603D01*
G02X190726Y19944I141J141D01*
G01X191531D01*
X191544Y19943D01*
G03X192000Y19913I456J3469D01*
G01X197000D01*
G03Y26913I0J3500D01*
G01X192000D01*
G03X191544Y26883I0J-3499D01*
G01X191531Y26882D01*
X188925D01*
Y25085D01*
G03X188902Y21784I3075J-1672D01*
G01X188925Y21741D01*
Y20900D01*
X182646D01*
Y21733D01*
X183905D01*
Y28826D01*
X182646D01*
Y30126D01*
X166542D01*
G02X166259Y30809I0J400D01*
G01X172950Y37500D01*
X185740D01*
X188242Y40001D01*
G02X188925Y39718I283J-283D01*
G01Y34118D01*
X195075D01*
Y41350D01*
X196973D01*
X198738Y39585D01*
X200677D01*
Y38519D01*
X201780D01*
Y33831D01*
X205920D01*
Y38169D01*
X205843D01*
Y39819D01*
X206780D01*
Y36945D01*
X206773Y36919D01*
G03X206650Y36000I3377J-919D01*
G01Y24000D01*
G03X206773Y23081I3500J0D01*
G01X206780Y23055D01*
Y20531D01*
X207150D01*
Y19107D01*
X210756Y15501D01*
G02X210511Y14820I-283J-283D01*
G03X209178Y14505I474J-4978D01*
G01X209056Y14458D01*
G37*
G36*
G01X170197Y56491D02*
X167287Y59400D01*
X157787D01*
X157700Y59487D01*
Y60780D01*
X161669D01*
Y64920D01*
X157700D01*
Y65780D01*
X168969D01*
Y67756D01*
G02X169652Y68039I400J0D01*
G01X170879Y66811D01*
Y56774D01*
G02X170197Y56491I-400J0D01*
G37*
G36*
G01X165374Y83532D02*
Y91000D01*
X169000D01*
G03X170720Y91452I0J3500D01*
G01X172888Y89283D01*
X179630D01*
G02X179913Y88600I0J-400D01*
G01X178600Y87287D01*
Y83532D01*
X165374D01*
G37*
G36*
G01X161437Y143965D02*
Y144392D01*
X160500Y145329D01*
Y145980D01*
X161969D01*
Y146350D01*
X162350D01*
G03X164698Y147482I0J3000D01*
G02X165411Y147233I313J-249D01*
G01Y143965D01*
X161437D01*
G37*
G36*
G01X174545Y93284D02*
X172365Y95463D01*
X172351Y95511D01*
G03X172277Y95730I-3351J-1012D01*
G02X172397Y95988I187J70D01*
G01X174500D01*
G03X176741Y96988I0J3012D01*
G01X176762D01*
X179860Y93891D01*
G02X179518Y93284I-342J-207D01*
G01X174545D01*
G37*
G36*
G01X177168Y118497D02*
X177082Y118499D01*
G03X177000Y118500I-82J-3056D01*
G01X174000D01*
Y119672D01*
X177076Y122748D01*
X180968D01*
Y118874D01*
X177546D01*
X177168Y118497D01*
G37*
G36*
G01X177131Y129108D02*
G03X176110Y132112I-2921J683D01*
G01Y134468D01*
X180968D01*
Y128617D01*
X177520D01*
G02X177131Y129108I0J400D01*
G37*
G36*
G01X226824Y1969D02*
G02X226541Y2651I0J400D01*
G01X228750Y4861D01*
Y12332D01*
G03X228778Y12398I-2751J1197D01*
G01X228793Y12435D01*
X229834Y13476D01*
X233276D01*
Y38524D01*
X231386D01*
G02X231088Y39190I0J400D01*
G03X226759Y44500I-2588J2310D01*
G01X220400D01*
Y45287D01*
X216287Y49400D01*
X213323D01*
Y53840D01*
X230528D01*
X232586Y55898D01*
G02X233268Y55615I283J-283D01*
G01Y48661D01*
X241669D01*
Y56662D01*
X234315D01*
G02X234032Y57344I0J400D01*
G01X242200Y65513D01*
Y123987D01*
X239500Y126687D01*
Y127000D01*
G03X233500I-3000J0D01*
G01Y125628D01*
X232745D01*
Y126296D01*
X226444D01*
Y125767D01*
X226122D01*
X226066Y125875D01*
G03X220555Y123547I-2667J-1375D01*
G02X220176Y123020I-379J-127D01*
G01X216531D01*
Y116280D01*
X223110D01*
X223768Y115622D01*
X225144D01*
Y111648D01*
X222169D01*
Y115420D01*
X217831D01*
Y113322D01*
G02X217148Y113039I-400J0D01*
G01X215900Y114287D01*
Y123787D01*
X208519Y131169D01*
X204720D01*
Y135031D01*
X206020D01*
Y142600D01*
X207787D01*
X210201Y145013D01*
X210292Y145007D01*
G03X207507Y147792I208J2993D01*
G01X207513Y147701D01*
X206703Y146890D01*
G02X206020Y147173I-283J283D01*
G01Y147969D01*
X204376D01*
G02X204170Y148712I0J400D01*
G03X199278Y151076I-1670J2788D01*
G01X199290Y150978D01*
X196673Y148361D01*
Y147969D01*
X194376D01*
G02X194170Y148712I0J400D01*
G03X195568Y150426I-1670J2788D01*
G03Y152574I-1568J1074D01*
G03X192411Y154749I-3068J-1074D01*
G02X192000Y155149I-11J400D01*
G03X189000Y158150I-3000J1D01*
G01X187969D01*
Y158520D01*
X175031D01*
Y154765D01*
G02X174452Y154408I-400J0D01*
G03X169767Y151170I-1453J-2908D01*
G02X169532Y150953I-199J-20D01*
G03X169386Y150975I-532J-2953D01*
G01X169211Y150998D01*
Y155976D01*
X167987Y157201D01*
X167993Y157292D01*
G03X167671Y158866I-2993J208D01*
G02X168027Y159449I356J182D01*
G01X246063D01*
Y1969D01*
X226824D01*
G37*
G36*
G01X205100Y48213D02*
X207713Y45600D01*
X208158D01*
Y44551D01*
X205843D01*
Y45851D01*
X200660D01*
G02X199994Y45683I-383J115D01*
G01X199450Y46227D01*
Y48250D01*
X190005D01*
Y53150D01*
X195207D01*
X198542Y49815D01*
X200677D01*
Y49149D01*
X205100D01*
Y48213D01*
G37*
G36*
G01X182663Y59024D02*
X182400Y59287D01*
Y70313D01*
X182296Y70417D01*
G02X182579Y71100I283J283D01*
G01X183363D01*
G03X189070Y71931I2637J1900D01*
G02X189730Y72083I378J-132D01*
G01X191586Y70226D01*
G02X191303Y69544I-283J-283D01*
G01X188330D01*
Y68000D01*
X186550D01*
X183005Y64455D01*
Y59165D01*
G02X182663Y59024I-200J0D01*
G37*
G36*
G01X181787Y74900D02*
X181213Y75475D01*
Y79634D01*
G02X181896Y79917I400J0D01*
G01X185083Y76730D01*
G02X184931Y76070I-283J-283D01*
G03X183363Y74900I1069J-3070D01*
G01X181787D01*
G37*
G36*
G01X208400Y82253D02*
G02X207717Y81970I-400J0D01*
G01X205787Y83900D01*
X204720D01*
Y87669D01*
X200580D01*
Y83900D01*
X199720D01*
Y88980D01*
X199969D01*
Y95720D01*
X193108D01*
X191508Y97321D01*
X193648Y99461D01*
G02X194331Y99178I283J-283D01*
G01Y96580D01*
X198669D01*
Y100000D01*
X199813D01*
X203100Y96713D01*
Y90713D01*
X208400Y85413D01*
Y82253D01*
G37*
G36*
G01X181213Y134713D02*
Y142600D01*
X184287D01*
X186400Y144713D01*
Y145480D01*
X187969D01*
Y146950D01*
X188137D01*
X190297Y149110D01*
G03X192571Y148251I2203J2390D01*
G02X192980Y147851I9J-400D01*
G01Y146400D01*
X192713D01*
X189100Y142787D01*
Y134713D01*
X181213D01*
G37*
G36*
G01X200455Y56388D02*
X199450Y57393D01*
Y60050D01*
X195858D01*
Y68100D01*
X201442D01*
Y60756D01*
X206370D01*
Y68100D01*
X207531D01*
Y56481D01*
X200677D01*
X200455Y56388D01*
G37*
G36*
G01X217743Y17000D02*
X213520Y21223D01*
Y23055D01*
X213527Y23081D01*
G03X213650Y24000I-3377J919D01*
G01Y32142D01*
X223544D01*
Y32842D01*
X223976D01*
Y17000D01*
X217743D01*
G37*
G36*
G01X206617Y112833D02*
X206050Y113400D01*
X204720D01*
Y116942D01*
X206870D01*
X207300Y116513D01*
Y113116D01*
G02X206617Y112833I-400J0D01*
G37*
G36*
G01X204720Y122711D02*
Y125768D01*
X206044D01*
X208419Y123394D01*
G02X208136Y122711I-283J-283D01*
G01X204720D01*
G37*
G36*
G01X220369Y57641D02*
G02X219973Y58095I0J400D01*
G03X218900Y60822I-2973J405D01*
G01Y62572D01*
X225144D01*
Y62372D01*
X226444D01*
Y61704D01*
X232051D01*
G02X232334Y61021I0J-400D01*
G01X228954Y57641D01*
X220369D01*
G37*
G36*
G01X219104Y95084D02*
X217000Y97187D01*
Y101942D01*
X219143D01*
G02X219538Y101478I0J-400D01*
G03X224764Y99031I2962J-478D01*
G01X224824Y99100D01*
X225144D01*
Y95900D01*
X224824D01*
X224764Y95969D01*
G03X219753Y95206I-2264J-1969D01*
G02X219104Y95084I-366J161D01*
G37*
G36*
G01X234045Y63698D02*
Y83238D01*
G02X234558Y83622I400J0D01*
G03X237695Y84561I848J2878D01*
G02X238400Y84302I305J-259D01*
G01Y67087D01*
X234727Y63415D01*
G02X234045Y63698I-283J283D01*
G37*
G36*
G01X238400Y96805D02*
G02X237706Y96534I-400J0D01*
G03X235292Y97493I-2206J-2034D01*
G01X235201Y97486D01*
X234865Y97822D01*
X237306Y100263D01*
Y100676D01*
X237374Y100736D01*
G03X237695Y101061I-1969J2264D01*
G02X238400Y100802I305J-259D01*
G01Y96805D01*
G37*
G36*
G01X237695Y104939D02*
G03X234558Y105878I-2289J-1939D01*
G02X234045Y106262I-113J384D01*
G01Y110977D01*
G02X234686Y111295I400J0D01*
G03X237823Y110992I1814J2390D01*
G02X238400Y110634I176J-359D01*
G01Y105198D01*
G02X237695Y104939I-400J0D01*
G37*
%LPC*%
G75*
G54D49*
X10000Y29594D03*
X48500Y30094D03*
X218500Y24094D03*
G54D48*
X54594Y150000D03*
G54D50*
X11811Y11811D03*
X236220Y149606D03*
G54D53*
X237468Y135339D03*
G54D45*
X6500Y65000D03*
G54D46*
X6850Y87000D03*
Y113000D03*
Y121000D03*
X79850Y137500D03*
X32350Y65500D03*
X81650Y100500D03*
X203850Y24000D03*
Y30000D03*
G54D44*
X10000Y55650D03*
X41500Y150650D03*
X48000D03*
X48500Y56150D03*
X106500Y155650D03*
X137500D03*
X147500D03*
X158500D03*
X165500Y62850D03*
G54D47*
X20440Y31580D03*
G54D51*
X97000Y55189D03*
G54D52*
X241421Y7299D03*
Y44701D03*
%LPD*%
G75*
G54D10*
X11811Y11811D03*
X236220Y149606D03*
G54D11*
X10000Y41406D03*
Y29594D03*
X48500Y30094D03*
Y41906D03*
X99000Y144094D03*
Y155906D03*
X218500Y24094D03*
Y35906D03*
G54D20*
X29236Y87559D03*
Y132441D03*
X41047Y87559D03*
X39079D03*
X37110D03*
X35142D03*
X33173D03*
X31205D03*
Y132441D03*
X33173D03*
X35142D03*
X37110D03*
X39079D03*
X41047D03*
X52858Y87559D03*
X50890D03*
X48921D03*
X46953D03*
X44984D03*
X43016D03*
Y132441D03*
X44984D03*
X46953D03*
X48921D03*
X50890D03*
X52858D03*
X58764Y87559D03*
X56795D03*
X54827D03*
Y132441D03*
X56795D03*
X58764D03*
G54D21*
X21559Y95236D03*
Y97205D03*
Y99173D03*
Y101142D03*
Y103110D03*
Y105079D03*
Y107047D03*
Y109016D03*
Y110984D03*
Y112953D03*
Y114921D03*
Y116890D03*
Y118858D03*
Y120827D03*
Y122795D03*
Y124764D03*
X66441Y101142D03*
Y99173D03*
Y97205D03*
Y95236D03*
Y114921D03*
Y112953D03*
Y110984D03*
Y109016D03*
Y107047D03*
Y105079D03*
Y103110D03*
Y124764D03*
Y122795D03*
Y120827D03*
Y118858D03*
Y116890D03*
G54D12*
X10000Y49350D03*
Y55650D03*
X27000Y78150D03*
Y71850D03*
X22500Y144350D03*
Y150650D03*
X28500Y144350D03*
Y150650D03*
X31500Y14150D03*
Y7850D03*
X33000Y71850D03*
Y78150D03*
X39000Y71850D03*
Y78150D03*
X41500Y144350D03*
Y150650D03*
X56000Y36350D03*
X48500Y49850D03*
X56000Y42650D03*
X48500Y56150D03*
X45500Y78150D03*
Y71850D03*
X51500Y78150D03*
Y71850D03*
X48000Y144350D03*
Y150650D03*
X58500Y71850D03*
Y78150D03*
X76000Y62150D03*
Y55850D03*
Y71350D03*
Y77650D03*
X75000Y116150D03*
Y109850D03*
X73500Y150650D03*
Y144350D03*
X92000Y40850D03*
Y47150D03*
X104500Y40850D03*
X98000D03*
X104500Y47150D03*
X98000D03*
X104000Y62150D03*
Y55850D03*
X118000Y62850D03*
Y69150D03*
X106500Y149350D03*
Y155650D03*
X124500Y62850D03*
X131000D03*
X124500Y69150D03*
X131000D03*
X119500Y149350D03*
X125500D03*
X119500Y155650D03*
X125500D03*
X137500Y62850D03*
Y69150D03*
Y149350D03*
X131500D03*
X137500Y155650D03*
X131500D03*
X154000Y47650D03*
Y41350D03*
X147500Y149350D03*
Y155650D03*
X165500Y62850D03*
X159500D03*
X165500Y69150D03*
X159500D03*
X158500Y149350D03*
Y155650D03*
X178500Y148850D03*
Y155150D03*
X184500Y148850D03*
Y155150D03*
X196500Y92350D03*
Y98650D03*
X211000Y66150D03*
Y59850D03*
X220000Y113350D03*
Y119650D03*
G54D30*
X192000Y23413D03*
Y37587D03*
G54D40*
G01X79685Y151240D02*
X74090D01*
X73500Y150650D01*
G01X79685Y151240D02*
X83051D01*
X83291Y151000D01*
X84500D01*
X85315Y150185D01*
Y145315D01*
X83760Y143760D01*
X79685D01*
G01Y147500D02*
X77000D01*
X73850Y144350D01*
X73500D01*
G01X86150Y137500D02*
X90500D01*
G01D02*
X93350D01*
G01X90315Y143760D02*
Y137685D01*
X90500Y137500D01*
G01X99000Y147000D02*
X94760Y151240D01*
X90315D01*
G01X203260Y42185D02*
X199815D01*
X197200Y44800D01*
X194000D01*
G54D13*
X14850Y65500D03*
X13150Y87000D03*
X6850D03*
X13150Y113000D03*
X6850D03*
Y121000D03*
X13150D03*
X21150Y65500D03*
X38650D03*
X32350D03*
X54850Y19000D03*
X51850Y65500D03*
X61150Y19000D03*
X58150Y65500D03*
X76350Y85000D03*
X75350Y100500D03*
X79850Y137500D03*
X82650Y85000D03*
X81650Y100500D03*
X93350Y137500D03*
X86150D03*
X99650D03*
X114650Y98500D03*
X108350D03*
X114650Y92000D03*
X108350D03*
X114650Y110000D03*
X108350D03*
X114650Y119500D03*
X108350D03*
X114650Y125500D03*
X108350D03*
X114650Y137500D03*
X108350D03*
X114650Y131500D03*
X108350D03*
X203850Y24000D03*
Y36000D03*
Y30000D03*
X202650Y78500D03*
X196350D03*
Y85500D03*
X202650D03*
X196350Y115000D03*
X202650D03*
X196350Y124500D03*
X202650D03*
X196350Y138500D03*
X202650D03*
Y132500D03*
X196350D03*
X202650Y144500D03*
X196350D03*
X210150Y24000D03*
Y36000D03*
Y30000D03*
G54D31*
X194000Y44800D03*
Y56600D03*
G54D22*
X40984Y9842D03*
X50984D03*
X60984D03*
X70984D03*
X80984D03*
X90984D03*
X100984D03*
X110984D03*
X120984D03*
X130984D03*
X140984D03*
X150984D03*
X160984D03*
X170984D03*
X180984D03*
X190984D03*
X200984D03*
X210984D03*
G54D41*
G01X10000Y55650D02*
X9902D01*
X6547Y59005D01*
G01D02*
Y59104D01*
X6500Y59150D01*
G01Y68500D02*
X8500Y70500D01*
G01X5000Y113000D02*
Y87000D01*
G01D02*
Y81500D01*
G01D02*
X8500Y78000D01*
Y70500D01*
G01X5000Y117000D02*
Y113000D01*
G01Y121132D02*
Y129500D01*
G01Y117000D02*
Y121132D01*
G01X19000Y129500D02*
X5000D01*
G01D02*
Y144500D01*
X11150Y150650D01*
G01X20500Y22500D02*
X12500D01*
X10000Y25000D01*
G01D02*
Y29594D01*
G01Y41406D02*
X29406D01*
X29500Y41500D01*
G01X10000Y49350D02*
Y41406D01*
G01X14850Y65500D02*
Y60570D01*
X21000Y54420D01*
X29500D01*
G01X14850Y65500D02*
X15000Y65650D01*
Y71000D01*
G01X6500Y65000D02*
Y68500D01*
G01Y59150D02*
Y65000D01*
G01X15000Y71000D02*
Y77000D01*
G01X22500Y144350D02*
X16150D01*
G01X11150Y150650D02*
X22500D01*
G01X30500Y22500D02*
X20500D01*
G01D02*
X20440Y22560D01*
G01D02*
Y31580D01*
G01X48500Y25000D02*
X46000Y22500D01*
X30500D01*
G01X29500Y31580D02*
Y41500D01*
G01Y54420D02*
Y41500D01*
G01X22500Y150650D02*
Y154900D01*
G01D02*
X24100Y156500D01*
X45000D01*
G01X36500Y42000D02*
X38000D01*
X38094Y41906D01*
X41406D01*
G01X38560Y31580D02*
X38500Y31640D01*
Y39000D01*
X41406Y41906D01*
G01X42500Y49500D02*
Y54218D01*
X44432Y56150D01*
G01X41406Y41906D02*
X48500D01*
G01X41500Y144350D02*
X48000D01*
G01X41500D02*
X36500D01*
G01X48500Y30094D02*
Y25000D01*
G01X56000Y36350D02*
X54756D01*
X48500Y30094D01*
G01X56000Y42650D02*
X49244D01*
X48500Y41906D01*
G01D02*
Y49850D01*
G01X47100Y56150D02*
X45500Y57750D01*
G01X47100Y56150D02*
X48500D01*
G01X45500Y61000D02*
Y66500D01*
G01X44432Y56150D02*
X47100D01*
G01X45500Y57750D02*
Y61000D01*
G01Y71850D02*
X51500D01*
G01X45500D02*
Y66500D01*
G01X58000Y143400D02*
X54594Y146806D01*
Y149500D01*
G01X74500Y27732D02*
Y31000D01*
X69150Y36350D01*
G01D02*
X56000D01*
G01Y42650D02*
X62382D01*
X64000Y44268D01*
G01X70500D02*
X64000D01*
G01X70500D02*
X63268Y51499D01*
Y66000D01*
G01Y72000D02*
Y66000D01*
G01Y72000D02*
Y89268D01*
X64000Y90000D01*
G01D02*
X69500D01*
X75350Y95850D01*
Y100500D01*
G01X73500Y137500D02*
X70000D01*
X64100Y143400D01*
X58000D01*
G01X73500Y150650D02*
X67056D01*
X66406Y150000D01*
G01D02*
Y155612D01*
G01X70984Y18000D02*
Y9842D01*
G01X80984D02*
Y16484D01*
X84500Y20000D01*
X90000D01*
X92500Y22500D01*
Y28982D01*
X94000Y30482D01*
Y34500D01*
G01X84000Y27732D02*
X74500D01*
G01D02*
Y21516D01*
X70984Y18000D01*
G01X94000Y34500D02*
X89982D01*
X88971Y35510D01*
X79258D01*
X70500Y44268D01*
G01X75000Y109850D02*
X79500D01*
G01X79850Y137500D02*
X73500D01*
G01X79850D02*
Y134150D01*
G01D02*
X81500Y132500D01*
X89500D01*
G01X186505Y56600D02*
Y43214D01*
X184291Y41000D01*
X171500D01*
X162500Y32000D01*
X122000D01*
X118000Y36000D01*
X111500D01*
X105500Y30000D01*
G01X99000Y155906D02*
X106244D01*
X106500Y155650D01*
G01X114650Y137500D02*
Y142350D01*
X114500Y142500D01*
G01X110850Y155650D02*
X112332Y154168D01*
Y154000D01*
G01X106500Y155650D02*
X110850D01*
G01X159500Y94500D02*
X146000D01*
G01X163500D02*
X159500D01*
G01X163500D02*
X169000D01*
G01X192000Y23413D02*
X197000D01*
G01X186505Y56600D02*
Y63005D01*
X188000Y64500D01*
X192094D01*
G01X203850Y30000D02*
Y24000D01*
G01D02*
Y19500D01*
G01Y36000D02*
Y30000D01*
G01X218500Y24094D02*
Y19500D01*
G01X210150Y30000D02*
Y24000D01*
G01X218500Y35906D02*
Y41500D01*
G01X210150Y36000D02*
Y30000D01*
G54D23*
X54594Y150000D03*
X66406D03*
X192094Y64500D03*
X203906D03*
G54D32*
X203260Y52815D03*
Y42185D03*
X207000Y52815D03*
Y42185D03*
X210740D03*
Y52815D03*
G54D14*
X6500Y65000D03*
X15000Y71000D03*
X92000Y92500D03*
X86000D03*
X103000Y76000D03*
Y68000D03*
X94000Y86500D03*
X173000Y151500D03*
X186000Y73000D03*
X192500Y151500D03*
X197000Y73000D03*
X202500Y151500D03*
G54D42*
G01X50984Y9842D02*
X43995Y16832D01*
X37000D01*
X34318Y14150D01*
X31500D01*
G01X61150Y19000D02*
Y14308D01*
X60984Y14143D01*
Y9842D01*
G54D24*
X64000Y27732D03*
Y44268D03*
X84000Y27732D03*
Y44268D03*
G54D33*
X228626Y16158D03*
Y20094D03*
Y24032D03*
Y27968D03*
Y31906D03*
Y35842D03*
G54D15*
X15000Y77000D03*
X8500Y70500D03*
X19000Y129500D03*
X16150Y144350D03*
X30500Y22500D03*
X36500Y42000D03*
X42500Y49500D03*
X39500Y103200D03*
X36500Y144350D03*
X50500Y19000D03*
X45500Y66500D03*
X66406Y155612D03*
X79500Y109850D03*
X94000Y34500D03*
X89500Y132500D03*
X105500Y30000D03*
X114500Y142500D03*
X112332Y154000D03*
X142000D03*
X146000Y94500D03*
X203850Y19500D03*
X197000Y23413D03*
X218500Y19500D03*
Y41500D03*
X228500D03*
G54D43*
G01X226000Y13531D02*
Y6000D01*
X223500Y3500D01*
X35948D01*
X31598Y7850D01*
X31500D01*
G01X192000Y37587D02*
Y42800D01*
X194000Y44800D01*
G01X228626Y16158D02*
X226000Y13531D01*
G54D25*
X79685Y151240D03*
Y147500D03*
Y143760D03*
X90315D03*
Y151240D03*
G54D34*
X229594Y64472D03*
Y62504D03*
Y76284D03*
Y74315D03*
Y72346D03*
Y70378D03*
Y68409D03*
Y66441D03*
Y90063D03*
Y88095D03*
Y86126D03*
Y84158D03*
Y82189D03*
Y80220D03*
Y78252D03*
Y101874D03*
Y99905D03*
Y97937D03*
Y95968D03*
Y94000D03*
Y92032D03*
Y113685D03*
Y111716D03*
Y109748D03*
Y107780D03*
Y105811D03*
Y103842D03*
Y125496D03*
Y123528D03*
Y121559D03*
Y119591D03*
Y117622D03*
Y115654D03*
G54D16*
G01X15500Y117000D02*
X5000D01*
G01X58150Y65500D02*
X62768D01*
X63268Y66000D01*
G01X58500Y71850D02*
X63118D01*
X63268Y72000D01*
G01X82000Y78811D02*
X79500Y81311D01*
Y81752D01*
X76350Y84902D01*
Y85000D01*
G01X79500Y109850D02*
Y105718D01*
X81650Y103568D01*
G01X82000Y71350D02*
Y78811D01*
G01X81650Y103568D02*
Y100500D01*
G01X108350Y110000D02*
X103500D01*
G01D02*
X99500Y114000D01*
G01X131000Y62850D02*
X124500D01*
G01X207000Y42185D02*
Y39500D01*
X203850Y36350D01*
Y36000D01*
G01X210740Y42185D02*
Y36590D01*
X210150Y36000D01*
G01X220000Y113350D02*
X218150D01*
X216200Y115300D01*
G01D02*
Y128800D01*
X216000Y129000D01*
G01X228626Y24032D02*
Y20094D01*
G01Y27968D02*
Y31906D01*
X11000Y82000D03*
X5500Y150500D03*
X13000Y156000D03*
X5500D03*
X25500Y6000D03*
Y17000D03*
X51500Y156000D03*
X45000D03*
X62000Y143500D03*
X81500Y61000D03*
X182500Y77000D03*
X183500Y68000D03*
X197500Y151000D03*
X208000Y73150D03*
X216000Y147500D03*
X223500Y153500D03*
X225500Y157000D03*
X220500D03*
X236500Y19000D03*
Y27500D03*
Y36500D03*
X244000Y140000D03*
G54D26*
X92000Y55189D03*
X87000D03*
X82000D03*
Y78811D03*
X87000D03*
X92000D03*
X97000Y55189D03*
Y78811D03*
G54D17*
G01X13150Y87000D02*
X21559D01*
G01X13150Y113000D02*
Y106650D01*
X13000Y106500D01*
G01X32350Y65500D02*
X29000D01*
G01D02*
X27000Y67500D01*
G01X21150Y71000D02*
Y65500D01*
G01X27000Y67500D02*
Y71850D01*
G01X21559Y87000D02*
X21150Y86591D01*
Y78000D01*
G01D02*
Y71000D01*
G01X27000Y78150D02*
X21300D01*
X21150Y78000D01*
G01X21559Y87000D02*
Y94059D01*
G01X24500Y132500D02*
Y135550D01*
X22500Y137550D01*
Y144350D01*
G01X45000Y156500D02*
Y156000D01*
G01X45500Y61000D02*
X34000D01*
X32350Y62650D01*
G01D02*
Y65500D01*
G01X46953Y102000D02*
X40700D01*
X39500Y103200D01*
G01X35500Y124000D02*
X39000Y120500D01*
X45353D01*
G01X45000Y150650D02*
X41500D01*
G01X54850Y19000D02*
X50500D01*
G01X46953Y94953D02*
Y102000D01*
G01X45353Y120500D02*
X46953Y118900D01*
Y102000D01*
G01D02*
X59623D01*
G01X45353Y120500D02*
X46500D01*
X48621Y122621D01*
X50500D01*
G01X45000Y156000D02*
Y150650D01*
G01D02*
X48000D01*
G01X76000Y62150D02*
Y71350D01*
G01D02*
X82000D01*
G01X76000Y77650D02*
X72150D01*
G01D02*
X71000Y76500D01*
Y66000D01*
G01X73500Y144350D02*
Y137500D01*
G01X82000Y71350D02*
X89000D01*
G01X96000Y108000D02*
X92500Y111500D01*
Y122500D01*
X87500Y127500D01*
G01X104500Y40850D02*
Y36500D01*
G01X104000Y55850D02*
X104791D01*
X106441Y57500D01*
G01X97000Y55189D02*
X99683D01*
G01D02*
X100343Y55850D01*
G01D02*
X104000D01*
G01X108350Y92000D02*
X104500D01*
G01X108350Y98500D02*
X104500D01*
G01X99650Y137500D02*
Y133932D01*
X101500Y132082D01*
Y118000D01*
X104500Y115000D01*
X113000D01*
X114650Y113350D01*
Y110000D01*
G01X99650Y137500D02*
Y143444D01*
X99000Y144094D01*
G01Y147000D02*
Y144094D01*
G01X106500Y149350D02*
X100850D01*
X99000Y147500D01*
Y147000D01*
G01X109000Y53500D02*
X112500Y57000D01*
Y57626D01*
X112572Y57698D01*
Y60846D01*
X112343Y61075D01*
Y73500D01*
X114500Y75657D01*
G01X106441Y57500D02*
X107000D01*
X108772Y59272D01*
G01X124500Y73500D02*
Y77000D01*
X123500Y78000D01*
X118893D01*
X116550Y75657D01*
X114500D01*
G01X106500Y149350D02*
X112000D01*
G01X126000Y36500D02*
X147500D01*
X149500Y38500D01*
Y45626D01*
X151524Y47650D01*
X154000D01*
G01X124500Y69150D02*
Y73500D01*
G01X141121Y99500D02*
Y91621D01*
X139000Y89500D01*
G01X157500Y103500D02*
X145121D01*
X141121Y99500D01*
G01D02*
X140621Y100000D01*
X133000D01*
G01X142000Y147000D02*
Y154000D01*
G01X131500Y155650D02*
X137500D01*
G01X142000Y154000D02*
X140350Y155650D01*
G01X142000Y154000D02*
X143650Y155650D01*
G01X140350D02*
X137500D01*
G01X151500Y99000D02*
X174500D01*
G01X146000Y116000D02*
X149050D01*
X149550Y115500D01*
X172000D01*
G01X147500Y149350D02*
X151350D01*
G01X147500Y155650D02*
X154500D01*
G01D02*
X158500D01*
G01X143650D02*
X147500D01*
G01X165500Y62850D02*
X159500D01*
G01X169800D02*
X165500D01*
G01X169500Y86500D02*
X175500D01*
G01X177500Y107032D02*
X161032D01*
X157500Y103500D01*
G01X162350Y149350D02*
X158500D01*
G01X172000Y115500D02*
X177000D01*
G01X178500Y155150D02*
X184500D01*
G01X194000Y56600D02*
X186505D01*
G01X184500Y155150D02*
X189000D01*
G01X203260Y52815D02*
X199785D01*
X196000Y56600D01*
X194000D01*
G01X203906Y64500D02*
Y59000D01*
G01X202650Y85500D02*
Y89068D01*
G01D02*
X202000Y89718D01*
Y94000D01*
G01X202650Y115000D02*
X206500D01*
G01X212500Y132500D02*
X202650D01*
G01X226000Y13531D02*
X225532Y14000D01*
X216500D01*
X210150Y20350D01*
Y24000D01*
G01X216000Y129000D02*
X212500Y132500D01*
G01X216000Y129000D02*
X229594D01*
G01X228626Y17126D02*
Y20094D01*
G01Y35842D02*
Y31906D01*
G01X218500Y35906D02*
X223643D01*
X223707Y35842D01*
X228626D01*
G01X237468Y52661D02*
X223000D01*
G01X228500Y41500D02*
X218500D01*
G01X229594Y129000D02*
Y133065D01*
X231868Y135339D01*
G01X241421Y44701D02*
Y7299D01*
G01X237468Y52661D02*
Y48654D01*
G01Y52661D02*
X237669D01*
X242600Y57593D01*
G01X237468Y48654D02*
X241421Y44701D01*
G01X242600Y57593D02*
Y57793D01*
X243000Y58193D01*
Y66500D01*
G01X235500D02*
Y70500D01*
G01D02*
Y82000D01*
G01X242600Y130407D02*
Y130207D01*
X243000Y129807D01*
Y66500D01*
G01X237468Y135339D02*
X237669D01*
X242600Y130407D01*
G01X231868Y135339D02*
X237468D01*
X17000Y91000D03*
X14000Y93500D03*
X11300Y96470D03*
X10500Y101500D03*
X13000Y106500D03*
X21150Y71000D03*
X26000Y87559D03*
X29000Y94000D03*
X30000Y110253D03*
Y116000D03*
X24500Y132500D03*
X37000Y96500D03*
X32591D03*
X43000Y95000D03*
X37000Y107500D03*
X34000Y110000D03*
X43000Y106500D03*
X31000Y125500D03*
X40000D03*
X39079Y139000D03*
X35142D03*
X33500Y150650D03*
X55000Y47500D03*
Y59500D03*
X46953Y94953D03*
X54500Y95000D03*
X52500Y106000D03*
X55500Y118200D03*
X50500Y122621D03*
X44984Y125516D03*
X57000Y27732D03*
X68000Y85000D03*
X59623Y102000D03*
X59500Y120500D03*
X61552Y131272D03*
X69200Y59500D03*
X71000Y66000D03*
X93000Y16500D03*
X89000Y71350D03*
X87439Y98480D03*
X87500Y127500D03*
X104500Y36500D03*
X104500Y92000D03*
Y98500D03*
X96000Y108000D03*
X100000D03*
X99500Y114000D03*
X97500Y126200D03*
X113461Y31398D03*
X109000Y53500D03*
X108772Y59272D03*
X114500Y75657D03*
X110841Y80659D03*
X115000Y80500D03*
X112000Y149350D03*
X108350Y141500D03*
X126000Y36500D03*
X124500Y73500D03*
X120500D03*
X142000Y24500D03*
X138000Y27000D03*
X141068Y62850D03*
X141500Y58000D03*
X141068Y69150D03*
X139000Y89500D03*
X136500Y86000D03*
Y96000D03*
X133000Y92500D03*
Y100000D03*
X132500Y104500D03*
X140500Y110000D03*
X136500D03*
X132500D03*
X138500Y116000D03*
X136500Y104500D03*
X135000Y128379D03*
Y123500D03*
X137784Y132216D03*
X145500Y41000D03*
X151500Y99000D03*
X146000Y116000D03*
X155500Y129500D03*
X151350Y149350D03*
X160850Y41350D03*
X159500Y90000D03*
X157000Y86500D03*
X157500Y103500D03*
X168000Y119500D03*
X159500Y127500D03*
X160500Y123500D03*
X164000Y128500D03*
X163500Y120500D03*
X162500Y132500D03*
X158300D03*
X162350Y149350D03*
X165000Y157500D03*
X169800Y62850D03*
X175500Y86500D03*
X170500Y102800D03*
X177500Y94500D03*
Y107032D03*
Y111500D03*
Y119800D03*
X168500Y128500D03*
X174209Y129791D03*
X168500Y132500D03*
X173000Y146000D03*
X169000Y148000D03*
X183016Y36500D03*
X189000Y155150D03*
X203906Y59000D03*
X202650Y73150D03*
X202000Y94000D03*
X217000Y58500D03*
X218500Y97937D03*
X206500Y115000D03*
X206489Y123511D03*
X210500Y148000D03*
X223000Y52661D03*
Y58500D03*
X222700Y86126D03*
Y90063D03*
X222500Y94000D03*
Y101000D03*
X223400Y124500D03*
X243000Y66500D03*
X235500D03*
Y82000D03*
X235405Y86500D03*
X235500Y90500D03*
Y94500D03*
X235405Y103000D03*
X236500Y113685D03*
Y118000D03*
Y122500D03*
Y127000D03*
G54D35*
X241421Y7299D03*
Y44701D03*
G54D27*
X115602Y25280D03*
X113043D03*
X110484D03*
Y47720D03*
X113043D03*
X115602D03*
X128398Y25280D03*
X125839D03*
X123280D03*
X120720D03*
X118162D03*
Y47720D03*
X120720D03*
X123280D03*
X125839D03*
X128398D03*
X133516Y25280D03*
X130957D03*
Y47720D03*
X133516D03*
X167662Y25280D03*
X165102D03*
X162543D03*
X159984D03*
Y47720D03*
X162543D03*
X165102D03*
X167662D03*
X177898Y25280D03*
X175339D03*
X172780D03*
X170220D03*
Y47720D03*
X172780D03*
X175339D03*
X177898D03*
X183016Y25280D03*
X180457D03*
Y47720D03*
X183016D03*
G54D18*
X20440Y31580D03*
X29500D03*
X38560D03*
G54D36*
X237468Y52661D03*
Y135339D03*
G54D37*
G01X3937Y0D02*
X244094D01*
G03X248032Y3937I0J3937D01*
G01Y157480D01*
G03X244094Y161417I-3937J0D01*
G01X3937D01*
G03X0Y157480I0J-3937D01*
G01Y3937D01*
G03X3937Y0I3937J0D01*
G01X10000Y29594D02*
Y32258D01*
G01X6056Y29594D02*
X10000D01*
G01D02*
X13944D01*
G01X10000Y53380D02*
Y55650D01*
G01D02*
Y57920D01*
G01Y55650D02*
X12369D01*
G01X4350Y65000D02*
X6500D01*
G01D02*
X8650D01*
G01X5000Y87000D02*
X6850D01*
G01Y84631D02*
Y87000D01*
G01D02*
X9120D01*
G01X14000Y93500D02*
Y97000D01*
X16173Y99173D01*
X21559D01*
G01X11300Y96470D02*
Y98421D01*
X14021Y101142D01*
X21559D01*
G01Y103110D02*
X12110D01*
X10500Y101500D01*
G01X21559Y110984D02*
X17536D01*
X15520Y113000D01*
X13150D01*
G01X5000D02*
X6850D01*
G01D02*
Y115369D01*
G01Y113000D02*
X9120D01*
G01X15610Y116890D02*
X17579Y114921D01*
X21559D01*
G01X5000Y121132D02*
X5132Y121000D01*
X6850D01*
G01Y118631D02*
Y121000D01*
G01D02*
Y123369D01*
G01Y121000D02*
X9120D01*
G01X20440Y31580D02*
Y36210D01*
G01X18170Y31580D02*
X20440D01*
G01D02*
X22710D01*
G01X27000Y71850D02*
Y74120D01*
G01X24631Y71850D02*
X27000D01*
G01Y78150D02*
X30678Y74472D01*
Y74074D01*
X32902Y71850D01*
X33000D01*
G01X29236Y87559D02*
X26000D01*
G01X21559Y94059D02*
Y95236D01*
G01X31205Y87559D02*
Y91795D01*
X29000Y94000D01*
G01X17000Y91000D02*
Y96500D01*
X17705Y97205D01*
X21559D01*
G01Y109016D02*
X26813D01*
X28050Y110253D01*
X30000D01*
G01X21559Y105079D02*
X34579D01*
X37000Y107500D01*
G01X34000Y110000D02*
X31047Y107047D01*
X21559D01*
G01X43000Y106500D02*
X36547Y112953D01*
X21559D01*
G01Y124764D02*
X25109Y125755D01*
G01X18009D02*
X21559Y124764D01*
G01Y118858D02*
X27142D01*
X30000Y116000D01*
G01X28500Y144350D02*
Y139000D01*
X31205Y136295D01*
Y132441D01*
G01X22500Y148380D02*
Y150650D01*
G01X20131Y148380D02*
X22500Y150650D01*
G01X33500D02*
X28500D01*
G01X39000Y71850D02*
X42168Y75018D01*
Y81168D01*
X43016Y82016D01*
Y87559D01*
G01X39000Y71850D02*
Y68318D01*
X38650Y67968D01*
Y65500D01*
G01X32350D02*
Y67869D01*
G01Y65500D02*
X34620D01*
G01X39000Y78150D02*
X38902D01*
X36678Y75926D01*
Y75430D01*
X33098Y71850D01*
X33000D01*
G01X37110Y87559D02*
Y92610D01*
X39700Y95200D01*
Y96200D01*
X41200Y97700D01*
G01X35142Y87559D02*
Y94642D01*
X37000Y96500D01*
G01X32591D02*
Y93000D01*
X33173Y92418D01*
Y87559D01*
G01X39000Y78150D02*
Y80500D01*
X41047Y82547D01*
Y87559D01*
G01X33000Y78150D02*
Y80520D01*
X33880Y81400D01*
X37163D01*
X39079Y83316D01*
Y87559D01*
G01D02*
Y92200D01*
X40500Y93621D01*
X41621D01*
X43000Y95000D01*
G01X41200Y97700D02*
X44206D01*
X46953Y94953D01*
G01X37110Y132441D02*
Y126110D01*
X35500Y124500D01*
G01D02*
Y124000D01*
G01X31000Y125500D02*
X33173Y127673D01*
Y132441D01*
G01X41047D02*
Y128497D01*
X40000Y127450D01*
Y125500D01*
G01X39079Y132441D02*
Y139000D01*
G01X35142Y132441D02*
Y139000D01*
G01X41500Y148380D02*
Y150650D01*
G01D02*
Y152920D01*
G01X39131Y150650D02*
X41500D01*
G01X48500Y30094D02*
Y32758D01*
G01X44556Y30094D02*
X48500D01*
G01D02*
X52444D01*
G01X48500Y53880D02*
Y56150D01*
G01D02*
Y58420D01*
G01Y56150D02*
X50869D01*
G01X51850Y65500D02*
Y65598D01*
X55000Y68748D01*
Y77118D01*
X53968Y78150D01*
X51500D01*
G01Y69580D02*
Y71850D01*
G01D02*
Y74120D01*
G01X45500Y71850D02*
Y74120D01*
G01X43131Y71850D02*
X45500D01*
G01X58500Y78150D02*
Y80520D01*
X56520Y82500D01*
X54000D01*
X52858Y83642D01*
Y87559D01*
G01X51500Y78150D02*
Y81331D01*
X48921Y83909D01*
Y87559D01*
G01X44984D02*
Y81036D01*
X45500Y80520D01*
Y78150D01*
G01X46953Y87559D02*
Y94953D01*
G01X66441Y124764D02*
X58245D01*
X52800Y119318D01*
Y119300D01*
X52500Y119000D01*
Y106000D01*
G01X125284Y85378D02*
X119648D01*
X118126Y86900D01*
X102837D01*
X83000Y106737D01*
Y115000D01*
X71000Y127000D01*
X63136D01*
X62500Y126364D01*
X49136D01*
X46953Y128547D01*
Y132441D01*
G01X44984D02*
Y125516D01*
G01X125284Y107032D02*
X120032D01*
X118200Y105200D01*
X94300D01*
X89500Y110000D01*
Y118263D01*
X74163Y133600D01*
X68400D01*
X61800Y140200D01*
X53200D01*
X50890Y137890D01*
Y132441D01*
G01X125284Y103094D02*
X119506D01*
X119000Y103600D01*
X93400D01*
X87800Y109200D01*
Y117700D01*
X73700Y131800D01*
X67463D01*
X60663Y138600D01*
X54837D01*
X54737Y138500D01*
X54400D01*
X52858Y136958D01*
Y132441D01*
G01X54594Y149500D02*
Y150000D01*
G01X51930D02*
X54594D01*
G01X48000Y148380D02*
Y150650D01*
G01D02*
Y152920D01*
G01Y150650D02*
X50369D01*
G01X64000Y27732D02*
X57000D01*
G01X56000Y34080D02*
Y36350D01*
G01D02*
Y38620D01*
G01X55000Y47500D02*
Y59500D01*
G01X92000Y47150D02*
X91902D01*
X89152Y49900D01*
X73100D01*
X66500Y56500D01*
Y81550D01*
X68000Y83050D01*
Y85000D01*
G01X56795Y87559D02*
X54827D01*
G01X56795D02*
X58764D01*
G01X54827Y92723D02*
Y87559D01*
G01D02*
X55818Y91109D01*
G01X54827Y87559D02*
X55322Y91109D01*
G01X56795Y87559D02*
Y91109D01*
G01Y87559D02*
X57786Y91109D01*
G01X58764Y87559D02*
Y91109D01*
G01X57773D02*
X58764Y87559D01*
G01X59623Y102000D02*
X61573D01*
G01X60000Y98500D02*
X59623Y98877D01*
Y102000D01*
G01X62000Y102427D02*
X62684Y103110D01*
G01X60000Y97500D02*
Y98500D01*
G01X54500Y95000D02*
Y93050D01*
X54827Y92723D01*
G01X66441Y101142D02*
X62432D01*
G01X59623Y102000D02*
X59000Y102623D01*
Y107032D01*
G01X66441Y97205D02*
X60295D01*
G01X60000Y97500D02*
Y96500D01*
G01Y98500D02*
X60673Y99173D01*
G01X61573Y102000D02*
X62000Y102427D01*
G01X60673Y99173D02*
X66441D01*
G01X62432Y101142D02*
X61573Y102000D01*
G01X60295Y97205D02*
X60000Y97500D01*
G01X62891Y102119D02*
X66441Y103110D01*
G01Y94245D02*
Y95236D01*
G01X62891Y94245D02*
X66441Y95236D01*
G01Y97205D02*
X69991D01*
G01X62891Y96214D02*
X66441Y97205D01*
G01Y99173D02*
X69991D01*
G01X62891Y98182D02*
X66441Y99173D01*
G01Y101142D02*
X69991D01*
G01X62891Y100151D02*
X66441Y101142D01*
G01X59000Y111500D02*
Y114000D01*
G01Y107032D02*
Y111500D01*
G01X66441Y110984D02*
X70516D01*
G01X59000Y107032D02*
X60984Y109016D01*
G01X59000Y111500D02*
X60453Y112953D01*
G01X62000Y102427D02*
Y104500D01*
G01X59000Y114000D02*
X59921Y114921D01*
X66441D01*
G01X60984Y109016D02*
X66441D01*
G01X62000Y104500D02*
X62579Y105079D01*
X66441D01*
G01X60453Y112953D02*
X66441D01*
G01X62684Y103110D02*
X66441D01*
G01D02*
X69991D01*
G01X62891Y104088D02*
X66441Y105079D01*
G01D02*
X69991Y104088D01*
G01X66441Y109016D02*
X69991Y110006D01*
G01X62891D02*
X66441Y109016D01*
G01X62891Y110984D02*
X66441D01*
G01X62891Y109993D02*
X66441Y110984D01*
G01Y112953D02*
X69991D01*
G01X62891Y111962D02*
X66441Y112953D01*
G01X62891Y113930D02*
X66441Y114921D01*
G01D02*
X69991Y113930D01*
G01X59500Y120500D02*
X59827Y120827D01*
G01X66441Y118858D02*
X61142D01*
X59500Y120500D01*
G01X59827Y120827D02*
X61795Y122795D01*
X66441D01*
G01X59827Y120827D02*
X66441D01*
G01Y118858D02*
X69991Y119849D01*
G01X62891D02*
X66441Y118858D01*
G01Y120827D02*
X69991D01*
G01X62891Y119836D02*
X66441Y120827D01*
G01X62891Y121804D02*
X66441Y122795D01*
G01D02*
X69991Y121804D01*
G01X58764Y132441D02*
X60238D01*
G01D02*
X61407Y131272D01*
X61552D01*
G01X125284Y99158D02*
X120342D01*
X117500Y102000D01*
X92500D01*
X86200Y108300D01*
Y116800D01*
X72800Y130200D01*
X66800D01*
X60000Y137000D01*
X55500D01*
X54827Y136327D01*
Y132441D01*
G01X125284Y87346D02*
X120154D01*
X119000Y88500D01*
X103500D01*
X84600Y107400D01*
Y115663D01*
X71663Y128600D01*
X62473D01*
X61837Y127964D01*
X57623D01*
X56795Y128791D01*
Y132441D01*
G01X54594Y150000D02*
Y153944D01*
G01Y150000D02*
X57258D01*
G01X67084Y9842D02*
X70984D01*
G01D02*
X74885D01*
G01X110841Y80659D02*
X100841D01*
X98500Y83000D01*
X95500D01*
X94283Y81783D01*
Y66783D01*
X89500Y62000D01*
Y52000D01*
X89000Y51500D01*
X74500D01*
X69200Y56800D01*
Y59500D01*
G01X86000Y92500D02*
X77500D01*
X71500Y86500D01*
Y82000D01*
X68100Y78600D01*
Y64900D01*
X72000Y61000D01*
Y57500D01*
X73650Y55850D01*
X76000D01*
G01D02*
X79757D01*
X80417Y55189D01*
X82000D01*
G01X76000Y75380D02*
Y77650D01*
G01D02*
Y79920D01*
G01Y77650D02*
X78369D01*
G01X79380Y100500D02*
X81650D01*
G01X70516Y110984D02*
X71650Y109850D01*
G01D02*
X75000D01*
G01Y107580D02*
Y109850D01*
G01D02*
Y112120D01*
G01X73500Y144350D02*
Y146620D01*
G01X71131Y144350D02*
X73500D01*
G01X120720Y25280D02*
Y20721D01*
X118200Y18200D01*
X115700D01*
X114000Y16500D01*
X102500D01*
X100542Y14543D01*
X95684D01*
X90984Y9842D01*
G01X80056Y23395D02*
X84000Y27732D01*
G01D02*
X87944D01*
G01X92000Y40850D02*
X87418D01*
X84000Y44268D01*
G01X98000Y47150D02*
X97902D01*
X95678Y44926D01*
Y44430D01*
X92098Y40850D01*
X92000D01*
G01Y90000D02*
X89718Y87717D01*
Y75283D01*
X92000Y73000D01*
Y67500D01*
X87000Y62500D01*
Y55189D01*
G01X92000D02*
Y58500D01*
X93500Y60000D01*
X99382D01*
X101532Y62150D01*
X104000D01*
G01X92000Y78811D02*
Y84500D01*
X94000Y86500D01*
G01X87000Y78811D02*
Y83020D01*
X85020Y85000D01*
X82650D01*
G01X87439Y98480D02*
X86060Y97101D01*
Y97060D01*
X86000Y97000D01*
Y92500D01*
G01X81650Y98131D02*
Y100500D01*
G01D02*
X83920D01*
G01X79850Y137500D02*
Y139869D01*
G01Y137500D02*
X82120D01*
G01X123280Y25280D02*
Y19780D01*
X120100Y16600D01*
X116600D01*
X114542Y14543D01*
X109037D01*
X108994Y14500D01*
X105642D01*
X100984Y9842D01*
G01X104500Y47150D02*
X102032D01*
X101168Y46287D01*
Y28332D01*
X104220Y25280D01*
X110484D01*
G01X93000Y16500D02*
X99000D01*
X101000Y18500D01*
X113500D01*
X115100Y20100D01*
X116828D01*
X118161Y21433D01*
Y25280D01*
X118162D01*
G01X113043D02*
Y21433D01*
X112110Y20500D01*
X106000D01*
X98000Y28500D01*
Y40850D01*
G01X104500D02*
X106869Y43120D01*
G01X103000Y68000D02*
Y65520D01*
X104000Y64520D01*
Y62150D01*
G01Y53580D02*
Y55850D01*
G01D02*
Y58120D01*
G01X97000Y52623D02*
Y55189D01*
G01D02*
Y57755D01*
G01X95517Y55189D02*
X97000D01*
G01X103000Y76000D02*
X110500D01*
X115000Y80500D01*
G01X103000Y76000D02*
X100189Y78811D01*
X97000D01*
G01X131878Y78784D02*
X130716D01*
X126500Y83000D01*
X119263D01*
X117163Y85100D01*
X101900D01*
X97000Y90000D01*
X92000D01*
G01X135815Y78784D02*
Y74815D01*
X135000Y74000D01*
X129835D01*
X128500Y75335D01*
Y78737D01*
X125837Y81400D01*
X118100D01*
X116000Y83500D01*
X100500D01*
X97500Y86500D01*
X94000D01*
G01X92000Y90000D02*
Y92500D01*
G01X100000Y108000D02*
X96800Y111200D01*
Y123550D01*
X97500Y124250D01*
Y126200D01*
G01X104500Y130000D02*
Y120500D01*
X105500Y119500D01*
X108350D01*
G01Y131500D02*
X106000D01*
X104500Y130000D01*
G01X114500Y142500D02*
X112500Y144500D01*
X106000D01*
X104500Y143000D01*
Y130000D01*
G01X99000Y153242D02*
Y155906D01*
G01D02*
Y158570D01*
G01X95056Y155906D02*
X99000D01*
G01X104131Y155650D02*
X106500D01*
G01X125839Y25280D02*
Y18339D01*
X122500Y15000D01*
X118000D01*
X115635Y12635D01*
X113778D01*
X110984Y9842D01*
G01X113461Y31398D02*
X113705D01*
X115602Y29500D01*
Y25280D01*
G01X104500Y40850D02*
Y43120D01*
G01X115602Y47720D02*
Y54102D01*
X118000Y56500D01*
Y62850D01*
G01X125284Y89315D02*
X120685D01*
X118000Y92000D01*
X114650D01*
G01X108350Y96131D02*
Y98500D01*
G01X106080Y96131D02*
X108350Y98500D01*
G01Y107631D02*
Y110000D01*
G01D02*
X110620D01*
G01X108350Y137500D02*
Y137402D01*
X111500Y134252D01*
Y126280D01*
X110720Y125500D01*
X108350D01*
G01X125284Y124748D02*
X117772D01*
X117020Y125500D01*
X114650D01*
G01X125284Y122780D02*
X121280D01*
X118000Y119500D01*
X114650D01*
G01X108350Y137500D02*
Y141500D01*
G01Y137500D02*
X110620D01*
G01X108350D02*
X110620Y139869D01*
G01X125284Y126717D02*
X119784D01*
X119000Y127500D01*
Y129520D01*
X117020Y131500D01*
X114650D01*
G01X119500Y155650D02*
X117032D01*
X116000Y154618D01*
Y147000D01*
X114500Y145500D01*
Y142500D01*
G01X106500Y153380D02*
Y155650D01*
G01D02*
Y157920D01*
G01X128398Y25280D02*
Y17256D01*
X120984Y9842D01*
G01X145500Y41000D02*
X144000Y39500D01*
X124000D01*
X120720Y42780D01*
Y47720D01*
G01X141720Y78784D02*
Y73680D01*
X144400Y71000D01*
Y56400D01*
X143000Y55000D01*
X131000D01*
X128398Y52398D01*
Y47720D01*
G01X149594Y78784D02*
Y74695D01*
X149400Y74500D01*
Y52400D01*
X140000Y43000D01*
X126500D01*
X125839Y43661D01*
Y47720D01*
G01X151563Y78784D02*
Y74063D01*
X151000Y73500D01*
Y51500D01*
X140600Y41100D01*
X125400D01*
X123280Y43220D01*
Y47720D01*
G01X141500Y58000D02*
X124500D01*
X118161Y51661D01*
Y47720D01*
X118162Y47720D01*
G01X120500Y73500D02*
X119500D01*
X118121Y72121D01*
Y71942D01*
X118000Y71821D01*
Y69150D01*
G01X125284Y97189D02*
X130311D01*
X131500Y96000D01*
X136500D01*
G01X125284Y93252D02*
X130298D01*
X131050Y92500D01*
X133000D01*
G01X125284Y91284D02*
X129716D01*
X131500Y89500D01*
G01X125284Y101126D02*
X129424D01*
X130550Y100000D01*
G01X125284Y105063D02*
X129987D01*
X130550Y104500D01*
X132500D01*
G01X125284Y112937D02*
X133563D01*
X136500Y110000D01*
G01X125284Y110968D02*
X131532D01*
X132500Y110000D01*
G01X125284Y114906D02*
X135594D01*
X140500Y110000D01*
G01X125284Y118842D02*
X132842D01*
X135000Y121000D01*
Y123500D01*
G01X125284Y116874D02*
X137626D01*
X138500Y116000D01*
G01X125284Y130654D02*
X132726D01*
X135000Y128379D01*
G01X131878Y139216D02*
X126284D01*
X119500Y146000D01*
Y149350D01*
G01X133846Y139216D02*
Y143154D01*
X133000Y144000D01*
X127000D01*
X125500Y145500D01*
Y149350D01*
G01Y155650D02*
X119500D01*
G01X162543Y25280D02*
Y21433D01*
X161110Y20000D01*
X151142D01*
X140984Y9842D01*
G01X130957Y25280D02*
Y18000D01*
X130984Y17972D01*
Y9842D01*
G01X133516Y21533D02*
Y25280D01*
G01D02*
X134605Y21533D01*
G01X147626Y78784D02*
Y53126D01*
X142220Y47720D01*
X133516D01*
G01X143689Y78784D02*
Y74311D01*
X146000Y72000D01*
Y54000D01*
X145000Y53000D01*
X132000D01*
X130957Y51957D01*
Y47720D01*
G01X137500Y62850D02*
X141068D01*
G01X137500Y60580D02*
Y62850D01*
G01D02*
Y65120D01*
G01X135131Y62850D02*
X137500D01*
G01Y69150D02*
X141068D01*
G01X139752Y78784D02*
Y73772D01*
X137500Y71520D01*
Y69150D01*
G01X137784Y78784D02*
Y74284D01*
X135900Y72400D01*
X131880D01*
X131000Y71520D01*
Y69150D01*
G01X131500Y89500D02*
X139000D01*
G01X133846Y78784D02*
Y83346D01*
X136500Y86000D01*
G01X130550Y100000D02*
X133000D01*
G01X141720Y139216D02*
Y135468D01*
X141200Y134948D01*
Y113119D01*
X143200Y111119D01*
Y111020D01*
X144000Y110220D01*
Y108000D01*
X140500Y104500D01*
X136500D01*
G01X135815Y139216D02*
Y143448D01*
X133663Y145600D01*
X132880D01*
X131500Y146980D01*
Y149350D01*
G01X137500Y153380D02*
Y155650D01*
G01D02*
Y157920D01*
G01X131500Y153380D02*
Y155650D01*
G01D02*
Y157920D01*
G01X150984Y9842D02*
Y13793D01*
X155192Y18000D01*
X162000D01*
X165102Y21102D01*
Y25280D01*
G01X154000Y39079D02*
Y41350D01*
G01D02*
Y43620D01*
G01X157468Y78784D02*
Y74968D01*
X154200Y71700D01*
Y57300D01*
X156000Y55500D01*
X164500D01*
X167662Y52338D01*
Y47720D01*
G01X153532Y78784D02*
Y73432D01*
X152600Y72500D01*
Y55900D01*
X155000Y53500D01*
X163700D01*
X165102Y52098D01*
Y47720D01*
G01X147000Y111000D02*
X143000Y115000D01*
Y118000D01*
X145000Y120000D01*
G01D02*
Y120500D01*
G01X151563Y139216D02*
Y127937D01*
X154000Y125500D01*
X157500D01*
X159500Y127500D01*
G01X149594Y139216D02*
Y127406D01*
X153500Y123500D01*
X160500D01*
G01X143689Y139216D02*
Y129311D01*
X152500Y120500D01*
X163500D01*
G01X146500Y131500D02*
X145658Y132342D01*
G01D02*
Y139216D01*
G01X147500Y153380D02*
Y155650D01*
G01D02*
Y157920D01*
G01X160984Y9842D02*
Y13793D01*
X161000Y13808D01*
Y14000D01*
X167661Y20661D01*
Y25280D01*
X167662D01*
G01X159437Y78784D02*
Y74674D01*
X155800Y71037D01*
Y58700D01*
X157000Y57500D01*
X166500D01*
X170220Y53780D01*
Y47720D01*
G01X165500Y60580D02*
Y62850D01*
G01D02*
Y65120D01*
G01X159500Y60580D02*
Y62850D01*
G01D02*
Y65120D01*
G01X165342Y78784D02*
Y75035D01*
X172780Y67598D01*
Y47720D01*
G01X157000Y86500D02*
X158950D01*
X159450Y86000D01*
X159500D01*
X161406Y84094D01*
Y78784D01*
G01X159500Y90000D02*
Y94500D01*
G01X161406Y139216D02*
Y134094D01*
X162500Y133000D01*
Y132500D01*
G01X163374Y139216D02*
Y135468D01*
X165500Y133342D01*
Y130000D01*
X164000Y128500D01*
G01X155500Y139216D02*
Y129500D01*
G01X157468Y139216D02*
Y133332D01*
X158300Y132500D01*
G01X165342Y144158D02*
X164000Y145500D01*
G01X158500Y153380D02*
Y155650D01*
G01D02*
Y157920D01*
G01X167311Y148000D02*
Y155189D01*
X165000Y157500D01*
G01X170220Y25280D02*
Y14556D01*
X170984Y13793D01*
Y9842D01*
G01X172780Y25280D02*
Y18047D01*
X180984Y9842D01*
G01X177898Y25280D02*
Y19602D01*
X180500Y17000D01*
X187000D01*
X189000Y15000D01*
X195827D01*
X200984Y9842D01*
G01X190984D02*
X185827Y15000D01*
X179500D01*
X175339Y19161D01*
Y25280D01*
G01X169280Y78784D02*
Y73721D01*
X174500Y68500D01*
Y55839D01*
X175339Y55000D01*
Y47720D01*
G01X171248Y78784D02*
Y74252D01*
X176500Y69000D01*
Y56500D01*
X177898Y55102D01*
Y47720D01*
G01X173216Y78784D02*
Y74546D01*
X178500Y69263D01*
Y57500D01*
X180457Y55543D01*
Y47720D01*
G01X179122Y78784D02*
Y74878D01*
X181000Y73000D01*
X186000D01*
G01X175185Y78784D02*
Y74841D01*
X180500Y69526D01*
Y58500D01*
X183016Y55984D01*
Y47720D01*
G01X185716Y97189D02*
X181968D01*
X176358Y102800D01*
X170500D01*
G01X185716Y107032D02*
X177500D01*
G01X185716Y114906D02*
X180906D01*
X177500Y111500D01*
G01X185716Y126717D02*
X175216D01*
X168000Y119500D01*
G01X183000Y136500D02*
X179000Y132500D01*
G01X173216Y139216D02*
Y134500D01*
X174209Y133507D01*
Y129791D01*
G01X171248Y139216D02*
Y131248D01*
X168500Y128500D01*
G01X169280Y139216D02*
Y133280D01*
X168500Y132500D01*
G01X175185Y139216D02*
Y143815D01*
X173000Y146000D01*
G01X167311Y148000D02*
Y139216D01*
G01X179122D02*
Y143622D01*
X180000Y144500D01*
X183500D01*
X184500Y145500D01*
Y148850D01*
G01X177154Y139216D02*
Y144654D01*
X178500Y146000D01*
Y148850D01*
G01X169000Y148000D02*
X167311D01*
G01X178500Y148850D02*
X175650D01*
X173000Y151500D01*
G01X183016Y21533D02*
Y25280D01*
G01D02*
X184105D01*
G01X210984Y9842D02*
X205827Y15000D01*
X199500D01*
X197000Y17500D01*
X190000D01*
X188500Y19000D01*
X181500D01*
X180457Y20043D01*
Y25280D01*
G01X185716Y87346D02*
X181346D01*
X180500Y86500D01*
Y84000D01*
X194500Y70000D01*
X213500D01*
X219028Y64472D01*
X229594D01*
G01X185716Y85378D02*
Y84284D01*
X191500Y78500D01*
X196350D01*
G01X185716Y89315D02*
X189465D01*
X190500Y88280D01*
Y85500D01*
X194000Y82000D01*
X205000D01*
X220559Y66441D01*
X229594D01*
G01X185716Y99158D02*
X190658D01*
X193400Y101900D01*
X200600D01*
X205000Y97500D01*
Y91500D01*
X210300Y86200D01*
Y79200D01*
X221091Y68409D01*
X229594D01*
G01X185716Y101126D02*
X190126D01*
X192500Y103500D01*
X201500D01*
X206900Y98100D01*
Y92100D01*
X211900Y87100D01*
Y80100D01*
X219654Y72346D01*
X229594D01*
G01X185716Y103094D02*
X189759D01*
X191765Y105100D01*
X202400D01*
X208500Y99000D01*
Y93000D01*
X213500Y88000D01*
Y81000D01*
X220185Y74315D01*
X229594D01*
G01X185716Y105063D02*
X189465D01*
X191102Y106700D01*
X203063D01*
X210200Y99563D01*
Y93800D01*
X215200Y88800D01*
Y81800D01*
X220716Y76284D01*
X229594D01*
G01X185716Y109000D02*
X190000D01*
X190700Y108300D01*
X203726D01*
X211800Y100226D01*
Y94700D01*
X216800Y89700D01*
Y82700D01*
X221248Y78252D01*
X229594D01*
G01X185716Y110968D02*
X190632D01*
X191700Y109900D01*
X204600D01*
X213500Y101000D01*
Y95263D01*
X218400Y90363D01*
Y83600D01*
X221780Y80220D01*
X229594D01*
G01X185716Y112937D02*
X190926D01*
X192363Y111500D01*
X205263D01*
X215100Y101663D01*
Y96400D01*
X220000Y91500D01*
Y84500D01*
X222311Y82189D01*
X229594D01*
G01X185716Y118842D02*
X207658D01*
X209200Y117300D01*
Y110800D01*
X216158Y103842D01*
X229594D01*
G01X185716Y120811D02*
X208689D01*
X210800Y118700D01*
Y111700D01*
X216689Y105811D01*
X229594D01*
G01X185716Y132622D02*
X190122D01*
X191000Y133500D01*
Y142000D01*
X193500Y144500D01*
X196350D01*
G01X185716Y128685D02*
X189465D01*
X190481Y127668D01*
X206832D01*
X212400Y122100D01*
Y112600D01*
X217220Y107780D01*
X229594D01*
G01X185716Y130654D02*
X191154D01*
X193000Y132500D01*
X196350D01*
G01X184500Y148850D02*
X187350D01*
X190000Y151500D01*
X192500D01*
G01X201580Y24000D02*
X203850D01*
G01D02*
X206120D01*
G01X201580Y36000D02*
X203850D01*
G01D02*
X206120D01*
G01X201580Y30000D02*
X203850D01*
G01D02*
X206120D01*
G01X201242Y64500D02*
X203906D01*
G01D02*
X206570D01*
G01X202650Y78500D02*
Y73150D01*
G01X196350Y78500D02*
Y75900D01*
X197000Y75250D01*
Y73000D01*
G01X200380Y85500D02*
X202650D01*
G01D02*
X204920D01*
G01X202000Y94000D02*
Y97500D01*
X200850Y98650D01*
G01D02*
X196500D01*
G01Y96380D02*
Y98650D01*
G01X194131D02*
X196500D01*
G01X202650Y115000D02*
X204920Y116184D01*
G01X202650Y115000D02*
X204920Y113816D01*
G01X205500Y124500D02*
X202650D01*
G01D02*
X204920Y125684D01*
G01X202650Y124500D02*
X204920Y123316D01*
G01X202650Y144500D02*
Y138500D01*
G01Y132500D02*
X204920Y134869D01*
G01X202650Y132500D02*
X204920Y133684D01*
G01X229594Y109748D02*
X217752D01*
X214000Y113500D01*
Y123000D01*
X207732Y129268D01*
X197113D01*
X196350Y130032D01*
Y132500D01*
G01D02*
Y138500D01*
G01X202650Y144500D02*
X207000D01*
X210500Y148000D01*
G01X195500Y149000D02*
X194500D01*
X192500Y147000D01*
G01X196350Y144500D02*
Y144598D01*
X198574Y146822D01*
Y147574D01*
X202500Y151500D01*
G01X192500D02*
X194000D01*
G01X214556Y24094D02*
X218500D01*
G01X206259Y39619D02*
X207000Y42185D01*
G01D02*
Y44751D01*
G01X218500Y41500D02*
Y44500D01*
X215500Y47500D01*
X208500D01*
X207000Y49000D01*
Y52815D01*
G01X211000Y59850D02*
Y55741D01*
G01D02*
X210740Y55481D01*
Y52815D01*
G01X236500Y127000D02*
X240300Y123200D01*
Y66300D01*
X229741Y55741D01*
X211000D01*
G01X217000Y58500D02*
Y62618D01*
X213469Y66150D01*
X211000D01*
G01X206489Y123511D02*
X205500Y124500D01*
G01X218500Y24094D02*
Y26758D01*
G01Y24094D02*
X222444D01*
G01X228626Y16158D02*
Y17126D01*
G01X229594Y61504D02*
Y62504D01*
G01X226244Y61504D02*
X229594Y62504D01*
G01Y86126D02*
X222700D01*
G01X229594Y88095D02*
X233811D01*
X235405Y86500D01*
G01X236937Y97937D02*
X229594D01*
G01Y90063D02*
X222700D01*
G01X229594Y92032D02*
X233968D01*
X235500Y90500D01*
G01X229594Y94000D02*
X222500D01*
G01X229594Y95968D02*
X234032D01*
X235500Y94500D01*
G01X229594Y99905D02*
X234261D01*
X235405Y101050D01*
Y103000D01*
G01X222500Y101000D02*
X224750D01*
X225624Y101874D01*
X229594D01*
G01X220000Y113350D02*
Y115620D01*
G01Y113350D02*
X222369Y115620D01*
G01X229594Y113685D02*
X236500D01*
G01X229594Y115654D02*
Y117622D01*
G01Y129000D02*
Y125496D01*
G01D02*
X232945Y126496D01*
G01X226244D02*
X229594Y125496D01*
G01X223400Y124500D02*
Y121837D01*
X225647Y119591D01*
X229594D01*
G01Y121559D02*
X235559D01*
X236500Y122500D01*
G01X241421Y3552D02*
Y7299D01*
G01X237675D02*
X241421D01*
G01D02*
X245168D01*
G01X233068Y48461D02*
X237468Y52661D01*
G01X241421Y44701D02*
Y48448D01*
G01X237675Y44701D02*
X241421D01*
G01D02*
X245168D01*
G01X237468Y52661D02*
Y56862D01*
G01X237500Y100500D02*
Y98500D01*
X236937Y97937D01*
G01X238000Y106000D02*
X238500Y105500D01*
Y101500D01*
X237500Y100500D01*
G01X237468Y131138D02*
Y135339D01*
G01D02*
Y139539D01*
G54D28*
X125284Y85378D03*
Y87346D03*
Y89315D03*
Y91284D03*
Y93252D03*
Y95221D03*
Y97189D03*
Y99158D03*
Y101126D03*
Y103094D03*
Y105063D03*
Y107032D03*
Y109000D03*
Y110968D03*
Y112937D03*
Y114906D03*
Y116874D03*
Y118842D03*
Y120811D03*
Y122780D03*
Y124748D03*
Y126717D03*
Y128685D03*
Y130654D03*
Y132622D03*
X185716Y89315D03*
Y87346D03*
Y85378D03*
Y101126D03*
Y99158D03*
Y97189D03*
Y95221D03*
Y93252D03*
Y91284D03*
Y114906D03*
Y112937D03*
Y110968D03*
Y109000D03*
Y107032D03*
Y105063D03*
Y103094D03*
Y126717D03*
Y124748D03*
Y122780D03*
Y120811D03*
Y118842D03*
Y116874D03*
Y132622D03*
Y130654D03*
Y128685D03*
G54D19*
X29500Y54420D03*
G54D38*
G01X13150Y121000D02*
X15620D01*
X15793Y120827D01*
X21559D01*
G01Y116890D02*
X15610D01*
G01D02*
X15500Y117000D01*
G01X21559Y124764D02*
Y126941D01*
G01D02*
X19000Y129500D01*
G01X24500Y132500D02*
X27987D01*
X28046Y132441D01*
X29236D01*
G01X41500Y144350D02*
Y141500D01*
X43016Y139984D01*
Y132441D01*
G01X50890Y87559D02*
Y95890D01*
X53000Y98000D01*
X55460D01*
X63460Y90000D01*
X64000D01*
G01X48000Y144350D02*
Y140500D01*
X48921Y139579D01*
Y132441D01*
G01X60000Y96500D02*
X61264Y95236D01*
G01D02*
X66441D01*
G01Y107047D02*
X71453D01*
X75350Y103150D01*
Y100500D01*
G01X66441Y116890D02*
X56810D01*
X55500Y118200D01*
G01X75000Y116150D02*
X72532D01*
X71792Y116890D01*
X66441D01*
G01X114650Y98500D02*
Y98402D01*
X112356Y96107D01*
Y96006D01*
X110743Y94393D01*
X110644D01*
X108350Y92098D01*
Y92000D01*
G01X125284Y95221D02*
X120780D01*
X117500Y98500D01*
X114650D01*
G01X125284Y109000D02*
X119000D01*
X118000Y110000D01*
X114650D01*
G01X125284Y132622D02*
Y133813D01*
X121596Y137500D01*
X114650D01*
G01X145658Y78784D02*
Y82842D01*
X139000Y89500D01*
G01X149000D02*
X139000D01*
G01X137500Y149350D02*
Y146880D01*
X137784Y146596D01*
Y139216D01*
G01D02*
Y132216D01*
G01X145658Y139216D02*
Y143342D01*
X142000Y147000D01*
G01X155500Y78784D02*
Y83000D01*
X149000Y89500D01*
G01X174500Y99000D02*
X177596D01*
X181375Y95221D01*
X185716D01*
G01X147626Y139216D02*
Y146754D01*
X147500Y146880D01*
Y149350D01*
G01X153532Y144032D02*
Y139216D01*
G01X154500Y155650D02*
Y145000D01*
X153532Y144032D01*
G01X163374Y78784D02*
Y73626D01*
X165500Y71500D01*
Y69150D01*
G01X161406Y78784D02*
Y73406D01*
X159500Y71500D01*
Y69150D01*
G01X163500Y94500D02*
X163374Y94374D01*
Y78784D01*
G01X167311Y84311D02*
X169500Y86500D01*
G01X169000Y94500D02*
X170500D01*
X173716Y91284D01*
X185716D01*
G01X159437Y139216D02*
Y143563D01*
X158500Y144500D01*
Y149350D01*
G01X165342Y139216D02*
Y144158D01*
G01Y152158D02*
Y144158D01*
G01X161850Y155650D02*
X165342Y152158D01*
G01X158500Y155650D02*
X161850D01*
G01X177154Y78784D02*
Y84846D01*
G01X167311Y78784D02*
Y84311D01*
G01X177154Y84846D02*
X175500Y86500D01*
G01X185716Y93252D02*
X180798D01*
X179550Y94500D01*
X177500D01*
G01X177000Y115500D02*
X178374Y116874D01*
X185716D01*
G01Y124748D02*
X176248D01*
X172000Y120500D01*
Y115500D01*
G01X185716Y122780D02*
X180480D01*
X177500Y119800D01*
G01X185716Y91284D02*
X191216D01*
X192500Y90000D01*
Y86500D01*
X193500Y85500D01*
X196350D01*
G01X185716Y95221D02*
X190780D01*
X193650Y92350D01*
X196500D01*
G01X196350Y124500D02*
X193880D01*
X193632Y124748D01*
X185716D01*
G01Y116874D02*
X191126D01*
X193000Y115000D01*
X196350D01*
G01X223000Y58500D02*
Y60550D01*
X224954Y62504D01*
G01D02*
X229594D01*
G01X235378Y70378D02*
X229594D01*
G01X235500Y82000D02*
X233342Y84158D01*
X229594D01*
G01Y97937D02*
X218500D01*
G01X229594Y111716D02*
X224202D01*
G01D02*
X222568Y113350D01*
G01D02*
X220000D01*
G01X236500Y118000D02*
X234450D01*
X234072Y117622D01*
X229594D01*
G01D02*
X224596D01*
X222568Y119650D01*
X220000D01*
G01X235500Y70500D02*
X235378Y70378D01*
G54D29*
X141720Y78784D03*
X139752D03*
X137784D03*
X135815D03*
X133846D03*
X131878D03*
Y139216D03*
X133846D03*
X135815D03*
X137784D03*
X139752D03*
X141720D03*
X153532Y78784D03*
X151563D03*
X149594D03*
X147626D03*
X145658D03*
X143689D03*
Y139216D03*
X145658D03*
X147626D03*
X149594D03*
X151563D03*
X153532D03*
X167311Y78784D03*
X165342D03*
X163374D03*
X161406D03*
X159437D03*
X157468D03*
X155500D03*
Y139216D03*
X157468D03*
X159437D03*
X161406D03*
X163374D03*
X165342D03*
X167311D03*
X179122Y78784D03*
X177154D03*
X175185D03*
X173216D03*
X171248D03*
X169280D03*
Y139216D03*
X171248D03*
X173216D03*
X175185D03*
X177154D03*
X179122D03*
G54D39*
G01X109000Y47720D02*
X107739D01*
X107168Y47150D01*
X104500D01*
G01X104000Y40850D02*
X104500D01*
G01X110850D02*
X104500D01*
G01X109000Y53500D02*
Y47720D01*
G01X110484D02*
X109000D01*
G01X113043D02*
Y43043D01*
G01X113043Y43043D02*
X110850Y40850D01*
G01X159984Y25280D02*
X142780D01*
X142000Y24500D01*
G01X138000Y27000D02*
X136280Y25280D01*
G01D02*
X133516D01*
G01X159984Y47720D02*
X158595D01*
X158524Y47650D01*
X154000D01*
G01Y41350D02*
X160850D01*
G01X162543Y43043D02*
X160850Y41350D01*
G01X162543Y47720D02*
Y43043D01*
G01X183016Y25280D02*
Y36500D01*
M02*
